<?xml version="1.0" encoding="utf-8"?>
<!-- Generator: Adobe Illustrator 21.0.0, SVG Export Plug-In . SVG Version: 6.00 Build 0)  -->
<svg version="1.1" id="Слой_1" xmlns="http://www.w3.org/2000/svg" xmlns:xlink="http://www.w3.org/1999/xlink" x="0px" y="0px"
	 viewBox="0 0 170 170" style="enable-background:new 0 0 170 170;" xml:space="preserve">
<style type="text/css">
	.st0{fill:#663333;}
	.st1{fill:#FFFFFF;}
</style>
<g>
	<circle class="st0" cx="85.3" cy="85" r="75"/>
	<g>
		<path class="st1" d="M54.7,56.6l-10.4,29h-4.1v1.3c0,7.6,6.7,13.8,15,13.8s15-6.2,15-13.8v-1.3h-4.1L54.7,56.6z M54.8,64.2
			l8.3,21.3H47.2L54.8,64.2z M55.2,98.1c-6.3,0-11.5-4.3-12.2-9.8h24.5C66.7,93.8,61.5,98.1,55.2,98.1z"/>
		<path class="st1" d="M126.1,85.6l-11.3-29l-10.4,29h-4.1v1.3c0,7.6,6.7,13.8,15,13.8s15-6.2,15-13.8v-1.3H126.1z M114.9,64.2
			l8.3,21.3h-15.9L114.9,64.2z M115.3,98.1c-6.3,0-11.5-4.3-12.2-9.8h24.5C126.8,93.8,121.6,98.1,115.3,98.1z"/>
		<path class="st1" d="M101.7,56.8c0-0.5,0-1-0.1-1.5h17.3v-2.7h-17.8c-0.3-1-0.8-1.8-1.5-2.4C98.4,49,97.1,49,97,49H74.4
			c-0.2,0-1.5,0-2.6,1.1c-0.4,0.5-1,1.2-1,2.5H53.4v2.7h17.4c0,1.7,0,3.5,0,4.3c-3.3,3.3-7.7,10.4-2.5,16.5c1.5,1.8,2.7,3.1,3.5,4
			c1.9,2.1,1.9,2.1,1.9,3.7l0,0.5c0.1,3.4,0,46.6,0,47l2.7,0c0-1.8,0.1-43.6,0-47l0-0.5c0-2.5-0.2-2.8-2.6-5.4
			c-0.8-0.9-1.9-2.1-3.4-3.9C65.8,69,71.2,63,72.6,61.5h12.4V65H73.2l4.1,2.5c2.3,1.4,8.4,5.7,8.8,9.3l2.6-0.3
			c-0.4-3.4-3.7-6.6-6.5-8.8h2.8h1.3H99v3.7l-5.4,9.4v50.5h2.7V81.5l5.4-9.4V56.8z M74.4,51.7l3.8,0v7.2h-4.8c0-1.5,0-4,0-5.8
			C73.4,52.2,73.8,51.7,74.4,51.7z M80.9,58.9v-7.2l4.2,0v7.2H80.9z M87.7,51.7l4.3,0V65h-4.3V51.7z M94.6,65V51.7l2.4,0
			c0,0,0.4,0.1,0.7,0.4c0.5,0.4,1.2,1.6,1.2,4.7V65H94.6z"/>
	</g>
</g>
</svg>
