<?xml version="1.0" encoding="utf-8"?>
<!-- Generator: Adobe Illustrator 21.0.0, SVG Export Plug-In . SVG Version: 6.00 Build 0)  -->
<svg version="1.1" id="Слой_1" xmlns="http://www.w3.org/2000/svg" xmlns:xlink="http://www.w3.org/1999/xlink" x="0px" y="0px"
	 viewBox="0 0 170 170" style="enable-background:new 0 0 170 170;" xml:space="preserve">
<style type="text/css">
	.st0{fill:#663333;}
	.st1{fill:#FFFFFF;}
</style>
<g>
	<circle class="st0" cx="85.5" cy="85.7" r="75"/>
	<g>
		<path class="st1" d="M85.1,85.3c4.1,0,7.4-3.3,7.4-7.4c0-4.1-3.3-7.4-7.4-7.4c-4.1,0-7.4,3.3-7.4,7.4C77.7,82,81.1,85.3,85.1,85.3
			z M85.1,73.2c2.6,0,4.7,2.1,4.7,4.7s-2.1,4.7-4.7,4.7s-4.7-2.1-4.7-4.7S82.5,73.2,85.1,73.2z"/>
		<path class="st1" d="M91.5,119.8v-12.2h3.3v-14l6.5,7.6V66.9c0.2-0.7,2.2-5.4,13.4-5.4c11.8,0,12,5.1,12,5.3v6.4
			c0,0.7,0.6,1.3,1.3,1.3c0.7,0,1.3-0.6,1.3-1.3v-6.4c0-0.2,0-2.2-1.9-4.2c-1.6-1.6-3.9-2.7-7-3.3c1.8-1.6,3-3.9,3-6.6
			c0-4.8-3.9-8.7-8.7-8.7S106,48,106,52.8c0,2.6,1.2,4.9,3,6.5c-9.1,1.6-10.2,6.9-10.3,7.1l0,27.6l-3.9-4.5c-0.1-0.5-0.4-0.9-0.9-1
			l-0.1-0.1H77.4l-4.7,6.2l-5.5-22.3l0-0.1c0-0.1-1.7-5-7.3-7.2c2.2-1.6,3.6-4.1,3.6-7c0-4.8-3.9-8.7-8.7-8.7s-8.7,3.9-8.7,8.7
			c0,2.7,1.3,5.2,3.3,6.8c-6.6,2.1-7.5,8-7.7,10.1c-0.1,0.7,0.5,1.4,1.2,1.4c0.7,0.1,1.4-0.5,1.4-1.2c0.2-3.1,1.8-8.3,10.2-8.3
			c0.1,0,0.2,0,0.3,0c7.6,0.1,9.8,5.7,10,6.2l6.8,27.6l5.3-6.9v14H80v12.2c0,0.7,0.6,1.3,1.3,1.3s1.3-0.6,1.3-1.3v-12.2h6.2v12.2
			c0,0.7,0.6,1.3,1.3,1.3C90.9,121.1,91.5,120.5,91.5,119.8z M108.7,52.8c0-3.3,2.7-6.1,6.1-6.1c3.3,0,6.1,2.7,6.1,6.1
			s-2.7,6.1-6.1,6.1C111.4,58.8,108.7,56.1,108.7,52.8z M54.7,52c3.3,0,6.1,2.7,6.1,6.1c0,3.3-2.7,6.1-6.1,6.1s-6.1-2.7-6.1-6.1
			C48.6,54.7,51.3,52,54.7,52z M79.4,91.1h12.8v14H79.4V91.1z"/>
		<path class="st1" d="M79.1,126.7h-3.8v-15.3L60.8,96.1L60,96.3c-0.1,0-1.1,0.3-2.3,1c-0.2-9.2-5.6-11.6-7.9-12.2
			c-1.6-4.5-6.5-6-9-6.1L39.5,79v21.7l15,26h-1.6c-0.7,0-1.3,0.6-1.3,1.3c0,0.7,0.6,1.3,1.3,1.3h26.2c0.7,0,1.3-0.6,1.3-1.3
			C80.4,127.3,79.8,126.7,79.1,126.7z M55.1,98.8v0.5c-0.3,0.3-0.6,0.7-0.9,1.1l-4.2-4.2v-8.2C51.9,88.7,55.4,91.1,55.1,98.8z
			 M42.1,100V81.9c1.7,0.4,4.3,1.4,5.2,4.2c0,0.1,0,0.1,0,0.1v11l6.4,6.4l9.6,10.5c0.5,0.5,1.3,0.6,1.9,0.1c0.5-0.5,0.6-1.3,0.1-1.9
			l-7.6-8.3l0-3.7c0.7-0.6,1.6-1,2.3-1.3l12.6,13.3v14.3H57.5L42.1,100z"/>
		<path class="st1" d="M131.6,79l-1.4,0.1c-2.5,0.1-7.4,1.5-9,6.1c-2.3,0.6-7.8,2.9-7.9,12.2c-1.2-0.6-2.2-0.9-2.3-1l-0.8-0.2
			l-14.5,15.3v15.3H92c-0.7,0-1.3,0.6-1.3,1.3c0,0.7,0.6,1.3,1.3,1.3h26.2c0.7,0,1.3-0.6,1.3-1.3c0-0.7-0.6-1.3-1.3-1.3h-1.6l15-26
			V79z M121.2,87.9v8.2l-4.2,4.2c-0.3-0.4-0.6-0.8-0.9-1.1l0-0.5C115.7,91,119.2,88.7,121.2,87.9z M129,100l-15.4,26.7H98.5v-14.3
			l12.6-13.3c0.7,0.3,1.5,0.7,2.3,1.3v3.7l-7.6,8.3c-0.5,0.5-0.5,1.4,0.1,1.9c0.5,0.5,1.4,0.5,1.9-0.1l9.6-10.5l6.4-6.4v-11
			c0-0.1,0-0.1,0-0.1c0.9-2.8,3.6-3.8,5.2-4.2V100z"/>
	</g>
</g>
</svg>
