<?xml version="1.0" encoding="utf-8"?>
<!-- Generator: Adobe Illustrator 21.0.0, SVG Export Plug-In . SVG Version: 6.00 Build 0)  -->
<svg version="1.1" id="Слой_1" xmlns="http://www.w3.org/2000/svg" xmlns:xlink="http://www.w3.org/1999/xlink" x="0px" y="0px"
	 viewBox="0 0 170 170" style="enable-background:new 0 0 170 170;" xml:space="preserve">
<style type="text/css">
	.st0{fill:#663333;}
	.st1{fill:#FFFFFF;}
</style>
<g>
	<circle class="st0" cx="85.6" cy="85" r="75"/>
	<g>
		<path class="st1" d="M125.6,74.1l-10.9-27.8l1-0.3c0.7-0.2,1.1-0.9,0.9-1.6c-0.2-0.7-0.9-1.1-1.6-0.9L93,49.4
			c-1.3-3.1-4.3-5.2-7.8-5.2c-4.7,0-8.4,3.8-8.4,8.4c0,0.4,0,0.7,0.1,1.1l-22.4,6c-0.7,0.2-1.1,0.9-0.9,1.6c0.2,0.6,0.7,1,1.3,1
			c0.1,0,0.2,0,0.3,0l0.1,0l-9.6,27h-4.1v1.3c0,7.6,6.7,13.8,15,13.8c8.3,0,15-6.2,15-13.8v-1.3h-4.1L56.6,61.8l21-5.6
			c0.6,1.3,1.6,2.4,2.8,3.3v48.3h-8.1c-1.7,0-3.1,1.4-3.1,3.1v3.1c0,0.2,0,0.3,0,0.4h-1.8c-1.7,0-3.1,1.4-3.1,3.1v3.6
			c0,1.7,1.4,3.1,3.1,3.1H103c1.7,0,3.1-1.4,3.1-3.1v-3.6c0-1.7-1.4-3.1-3.1-3.1h-1.8c0-0.1,0-0.3,0-0.4v-3.1c0-1.7-1.4-3.1-3.1-3.1
			h-8.1V59.5c2.2-1.6,3.6-4.1,3.6-6.9c0-0.2,0-0.4,0-0.6l20.1-5.3l-9.8,27.5h-4.1v1.3c0,7.6,6.7,13.8,15,13.8s15-6.2,15-13.8v-1.3
			H125.6z M56.4,101.6c-6.3,0-11.5-4.3-12.2-9.8h24.5C67.9,97.3,62.7,101.6,56.4,101.6z M48.4,89L56,67.7L64.3,89H48.4z
			 M103.4,117.6v3.6c0,0.2-0.2,0.4-0.4,0.4H67.5c-0.2,0-0.4-0.2-0.4-0.4v-3.6c0-0.2,0.2-0.4,0.4-0.4h4.8h25.8h4.8
			C103.2,117.1,103.4,117.3,103.4,117.6z M98.6,110.9v3.1c0,0.2-0.2,0.4-0.4,0.4H72.3c-0.2,0-0.4-0.2-0.4-0.4v-3.1
			c0-0.2,0.2-0.4,0.4-0.4h25.8C98.4,110.5,98.6,110.7,98.6,110.9z M87.6,57.9h-0.2v49.9H83V57.9h-0.2c-2.1-0.9-3.4-3-3.4-5.3
			c0-3.2,2.6-5.8,5.8-5.8s5.8,2.6,5.8,5.8C91,54.9,89.7,56.9,87.6,57.9z M114.3,52.7l8.3,21.3h-15.9L114.3,52.7z M114.7,86.6
			c-6.3,0-11.5-4.3-12.2-9.8H127C126.2,82.3,121,86.6,114.7,86.6z"/>
		<path class="st1" d="M85.2,51L85.2,51c-0.7,0-1.3,0.6-1.3,1.3c0,0.7,0.6,1.3,1.3,1.3c0.7,0,1.3-0.6,1.3-1.3
			C86.5,51.5,86,51,85.2,51z"/>
	</g>
</g>
</svg>
