<?xml version="1.0" encoding="utf-8"?>
<!-- Generator: Adobe Illustrator 21.0.0, SVG Export Plug-In . SVG Version: 6.00 Build 0)  -->
<svg version="1.1" id="Слой_1" xmlns="http://www.w3.org/2000/svg" xmlns:xlink="http://www.w3.org/1999/xlink" x="0px" y="0px"
	 viewBox="0 0 1236 720" style="enable-background:new 0 0 1236 720;" xml:space="preserve">
<style type="text/css">
	.st0{fill:#20303B;}
</style>
<g>
	<path class="st0" d="M499.7,507.6v46.7h-0.3c0,5.8-4.5,10-10,10c-5.8,0-10.3-4.5-10.3-10V537v-19.4l0,0c0,0,0.3-0.3,0.3-0.6v-9.4
		l-0.3,0.3v-0.6c0-3.3,1.5-6.4,4.2-8.2c0.9-0.6,2.1-1.2,3.3-1.5c0.9-0.3,1.8-0.3,2.7-0.3h0.3C495.5,497.3,499.7,501.9,499.7,507.6z
		 M490.9,260.7c0.3-3.6,0.6-7.3,0.6-10.6c-0.3-0.6-0.3-1.2-0.3-2.1c0-0.6,0-1.2,0-1.8v-0.3c0-3,0-6.1,0-9.4
		c4.5,11.2,8.5,22.7,11.8,35.1c0.6,2.4,1.2,5.2,1.8,7.9c5.5,23.3,8.2,47.9,8.2,73c0,27.3-3.3,56.1-10,85.4l-0.3,1.8
		c-4.2,19.1-10.3,37-17.3,53.3c-1.8,0.6-3.3,1.5-4.8,2.4c-2.4,1.5-4.2,3.9-5.2,6.7c-1.5-3.6-4.5-6.7-7.9-8.2c-0.3,0-0.6-0.3-0.9-0.3
		c0-1.8,0-3.3,0-4.8c0.9-21.8-2.7-42.4-9.1-60.3v-0.3c16.4-39.4,30.6-93.6,33.6-166.6C490.9,261.3,490.9,261,490.9,260.7z
		 M472.5,538.2v16.1c0,2.1-0.6,4.2-1.8,5.8l0,0h-0.3c0,0.3-0.3,0.3-0.3,0.6c-0.6,0.6-0.9,1.2-1.5,1.5c-0.6,0.3-0.9,0.6-1.2,0.9
		c0,0-0.3,0.3-0.6,0.3c-0.3,0-0.6,0.3-0.9,0.3c-1.2,0.6-2.7,0.9-4.2,0.9c-3.9,0-7.3-2.1-9.1-5.5l0,0l0,0c0,0,0,0,0-0.3v-0.3
		c0,0,0,0,0-0.3c-0.3-0.9-0.6-1.8-0.6-2.7c0-0.3,0-0.3,0-0.6v-0.3v-0.3v-46.7c0-5.8,4.5-10.3,10.3-10.3c1.5,0,3,0.6,4.2,1.5
		c0-0.3,0-0.3,0-0.6c0.3,0.3,0.9,0.3,1.2,0.6c2.7,1.8,4.8,4.8,4.8,8.5v12.1c0,0.3-0.3,0.3-0.3,0.6c0,0.3-0.3,0.3-0.3,0.6v3.9
		l-0.3,0.3v13.3C471.9,538.2,472.2,538.2,472.5,538.2z M433.7,492.8h-0.3c0-1.5,0-2.4,0-3.9c0-5.2,0-9.4-0.3-13.9
		c1.2-1.8,2.1-3.3,3-4.8c5.8-9.7,12.1-21.2,17.9-34.5c5.2,16.1,7.9,34.2,7.9,53c0,1.5,0,2.7,0,3.9c0,0,0-0.3-0.3-0.3
		c0,0.3,0,0.3,0,0.6c-3.9,0-7.6,1.5-10.3,4.2c-1.5,1.5-2.7,3.3-3.6,5.5l0,0C445.5,496.7,440,492.8,433.7,492.8z M337,537.3v-30.6
		c0.6-4.2-1.5-8.5-5.2-11.2c0,0-0.3,0-0.3-0.3c0-2.1,0-4.2,0-6.1c0-0.9,0-1.8,0-2.7c0-1.2,0-2.4,0-3.6c0.6,1.2,1.5,2.4,2.1,3.3
		c17.9,25.1,33.9,38.5,41.5,43.9l-1.2,0.3c0.3,0.3,0.3,0.3,0.6,0.6l0.3,0.3l0.3,0.3c0,0.3,0.3,0.3,0.3,0.3c0,0.3,0.3,0.3,0.3,0.3
		c0.3,0,0.3,0,0.3,0l0.3-0.9l0,0l0.3,0.3c0,0.3,0.3,0.3,0.3,0.3c0,0.3,0.3,0.3,0.3,0.3c0.3,0,0.3,0,0.3,0c0.6,0.6,1.2,0.9,1.2,0.9
		l0.9,0.6h0.3l0.3-0.3l0.3-0.3c0-0.3,0.3-0.3,0.3-0.3c0.3,0,0.3-0.3,0.6-0.3c0-0.3,0.3-0.3,0.6-0.6c0.3,0,0.6-0.3,0.9-0.6
		c7.3-5.2,25.8-20,45.8-49.7c0,2.4,0,4.8,0,7.3c0,1.8,0,3,0,4.8h-0.3l0,0c-2.1,0.9-3.9,2.1-5.5,3.6c-2.4,2.4-3.9,6.1-3.9,10v34.2
		c-0.3,0-0.6,0-0.9,0c-26.4,1.5-53.3,1.5-80,0.6l0,0C337.6,540.6,337.3,539.1,337,537.3z M333.4,534v9.4v4.8v5.2l-0.6,0.3v0.3v0.3
		v0.3c0,0.3,0,0.3,0,0.6c0,0.3,0,0.3,0,0.6c0,0.3,0,0.3,0,0.6c0,0.6-0.3,0.9-0.3,1.2s0,0.6-0.3,0.9c0,0.3-0.3,0.3-0.3,0.6l-0.3,0.3
		c0,0.3,0,0.3,0,0.3c0,0.3,0,0.3,0,0.3l0.6-0.3l0,0c0,0,0,0,0,0.3l0,0c-0.6,0-0.6,0-0.9,0.3c-1.8,2.4-4.2,3.9-7.3,4.2
		c-0.3,0-0.6,0-0.9,0h-0.6h-0.3l0,0l0,0l0,0h-0.3c0,0,0,0-0.3,0l0,0c-0.3,0-0.3,0-0.6,0c-0.6,0-1.2-0.3-1.8-0.6
		c-0.3,0-0.6-0.3-0.9-0.3h-0.3c0,0,0,0-0.3,0c0,0-0.3,0-0.3-0.3l-0.3-0.3c-2.1-1.5-3.6-3.6-3.9-6.4c0-0.3,0-0.3,0-0.6l0,0v-0.3
		c0-0.3,0-0.6,0-0.9v-47c0-5.8,4.5-10.3,10.3-10.3c1.2,0,2.4,0.3,3.6,0.6c0,0.3,0,0.3,0,0.6c0.9,0.3,1.5,0.9,2.4,1.5
		c0.9,0.9,1.8,1.8,2.4,3c0-0.3,0-0.9,0-1.2c0.3,0.3,0.6,0.6,0.6,0.9c0.6,1.5,1.2,3,1.2,4.5v9.4l0,0v5.8c-0.3-1.8-0.6-3.9-0.6-6.1
		v15.8C333.1,533.1,333.4,533.4,333.4,534z M285.2,519.4v-12.1c0-3.9,2.4-7.6,5.8-9.1c1.2-0.6,2.7-0.9,4.2-0.9c5.8,0,10,4.5,10,10.3
		v35.5v4.8v0.3v3.3l0.3,0.3v1.5l0,0l0,0v0.9c0,0,0,0,0,0.3l0.3,0.3l0,0c-0.3,0.9-0.6,2.1-0.9,3.3c-1.5,3.6-5.2,6.4-9.4,6.4
		c-1.8,0-3.6-0.6-5.2-1.5c-0.6-0.3-1.2-0.6-1.5-1.2c-0.9-0.6-1.5-1.5-2.1-2.4c-0.9-1.5-1.5-3.3-1.5-5.2v-12.4v-3v-15.1l0,0l0.3,0.3
		v-0.3L285.2,519.4L285.2,519.4C285.5,519.4,285.2,519.4,285.2,519.4z M305.5,553.4L305.5,553.4L305.5,553.4l0.6-0.3c0,0,0,0,0,0.3
		l0,0H305.5l0.3,0.6L305.5,553.4z M295.2,492.8h-0.3l0,0c0-1.5,0-2.7,0-4.2c0-19.1,2.7-37,7.9-53.3c0.3-1.2,0.6-2.1,1.2-3.3
		c0.3,0.9,0.9,1.8,1.2,3c6.1,13.6,12.1,24.8,17.9,34.5c1.2,2.4,2.7,4.5,3.9,6.7c0,1.2,0,2.7,0,3.9c0,3,0,6.1,0,9.1
		c0,1.2,0,2.7,0,3.9c-1.2-0.3-2.7-0.6-4.2-0.6c-6.4,0-11.8,3.9-13.9,9.4C306.7,496.4,301.3,492.8,295.2,492.8z M397.3,361.6
		c-0.9-0.3-1.8-0.6-2.7-0.6c1.2-0.3,2.4-0.3,3.6-0.6c38.8-6.7,72.1-33.6,86.4-71.2v-0.3c0.6-0.6,1.5-0.9,2.1-1.2c0,0.6,0,0.9,0,1.5
		v0.3c-4.8,55.8-16.4,99.4-29.7,132.4c-0.3,0.9-0.9,1.8-1.2,3c-0.3-0.9-0.9-2.1-1.2-3C442.2,391.6,421.6,369.1,397.3,361.6z
		 M452.8,431.6c-6.1,13.6-12.1,25.5-17.9,35.1c0,0.3-0.3,0.3-0.3,0.6c-0.6,0.9-1.2,1.8-1.8,2.4c0-0.9,0-2.1,0-3
		c-3-45.8-15.8-83-32.7-99.1c22.1,8.8,40.6,30.9,51.5,60.3C452.2,429.1,452.5,430.4,452.8,431.6z M428.5,473.7c0,0.9,0,1.8,0,2.7
		c-22.1,33.3-43,48.2-47.9,51.8c-4.8-3.3-25.1-17.9-46.7-50c-0.6-1.2-1.5-2.1-2.1-3c2.7-62.4,23-110.9,47.9-111.5h0.6
		c0.6,0,1.2,0,1.8,0C406.1,366.1,425.8,413.4,428.5,473.7z M362.8,366.1c-18.2,15.1-31.8,53.6-35.1,102.1c-0.3-0.3-0.3-0.6-0.6-0.9
		c-6.4-10.6-13.3-23.3-19.7-38.5c-0.6-1.2-0.9-2.1-1.2-3c12.1-30.9,32.4-53.3,56.4-60.3c0.6-0.3,1.2-0.3,1.8-0.6
		C363.7,365.5,363.4,365.8,362.8,366.1z M359.7,361.9c-23.3,7.6-43.3,28.8-56.1,58.2c-13-32.4-24.2-74.8-29.4-128.8
		c14.8,36.7,47.6,63,86.1,69.4c0.9,0,1.5,0.3,2.4,0.3C361.9,361.3,361,361.6,359.7,361.9z M424,555.5L424,555.5v-0.6v-47
		c0-3.6,2.1-7,4.8-8.8v-0.3c0.6-0.3,1.5-0.9,2.4-0.9c0.6-0.3,1.5-0.3,2.1-0.6V497l0,0h0.3c5.5,0,10,4.5,10,10.3v47
		c0,0.3,0,0.6,0,0.9s0,0.6,0,0.9c0,0.3,0,0.3,0,0.6c-0.6,3-2.4,5.2-4.8,6.7c-0.3,0-0.3,0.3-0.6,0.3c-0.9,0.3-1.5,0.6-2.4,0.9
		c-0.3,0-0.6,0-0.9,0l0,0c-0.3,0-0.6,0-0.9,0l0,0c-0.6,0-0.9,0-1.5,0c-0.3,0-0.9,0-1.2-0.3c-1.5-0.3-2.7-1.2-3.9-2.1l-0.3-0.3
		l-0.3-0.3c-1.2-1.2-1.8-2.7-2.4-4.2c0-0.3,0-0.6-0.3-0.9C424,556.1,424,555.8,424,555.5z M461.9,492.8L461.9,492.8L461.9,492.8
		L461.9,492.8L461.9,492.8z M487,283.7c0,0.3,0,0.9,0,1.2l-0.9-1.2c0-0.3,0-0.3,0.3-0.6c0.3-0.9,0.6-2.1,0.9-3
		C487.3,281.3,487,282.5,487,283.7z M327.9,244.9c5.2,0,9.4-3.3,10.9-7.9c1.8,0.6,3.6,1.2,4.8,1.5c-1.8,9.4-10,16.4-19.7,16.4
		c-10.9,0-20-9.1-20-20c0-8.8,5.5-16.1,13-18.8c0.9,1.8,2.1,4.5,4.2,7.6c-3,2.1-4.8,5.5-4.8,9.7
		C316.4,239.8,321.6,244.9,327.9,244.9z M331,227.9c-4.2-3.3-7.6-9.7-9.4-13c0,0,0,0,0.3,0c0.6,0,1.5,0,2.4,0c3,0,5.8,0.6,8.5,1.8
		c1.8,1.2,3.3,2.1,4.5,3c3.9,3.3,6.7,8.5,7,13.9C340.4,232.8,334.6,231,331,227.9z M341.6,216.4c-4.8-3.3-17.6-11.2-37.9-23.9
		c4.5-1.8,9.7-2.7,15.1-2.7c23.9,0,43.6,19.4,43.6,43.6c0.3,6.4-0.9,12.1-3.3,17.6c0,0,0,0.3-0.3,0.3c0-0.3-0.3-0.6-0.3-0.9
		C351.9,231,346.4,219.8,341.6,216.4z M361.3,257c3.9-7,6.1-14.8,6.1-23.3c0-14.8-6.7-27.9-17-36.7l26.4,9.1c0.3,0,0.6,0,0.9,0
		c0.6,0,1.2-0.3,1.5-0.9l27-9.1l4.5-1.5c-0.9,0.6-1.5,1.2-2.4,1.8c-10.9,8.8-17.6,22.1-17.6,37.3c0,7.9,1.8,14.8,5.2,21.5
		c0,0.3-0.3,0.3-0.3,0.6s-0.3,0.6-0.3,0.9c-7.3,22.7-13.9,48.8-17.3,62.4c-3.3-13.3-9.7-39.7-17-61.8C361,257.3,361.3,257,361.3,257
		z M394.6,233.7c0-23.9,19.4-43.6,43.6-43.6c4.8,0,10,0.9,14.2,2.4c-20.6,12.7-33.3,20.9-38.2,24.2s-10,14.2-16.7,32.7
		C395.8,244.6,394.6,239.2,394.6,233.7z M436.4,223.7c2.1-3,3.3-6.1,4.2-7.6l0,0c7.6,2.7,13.3,10.3,13.3,18.8
		c-0.3,10.9-9.4,20-20.3,20c-9.7,0-17.9-7-19.7-16.4l0,0c1.5-0.3,3-0.9,4.8-1.5c1.5,4.5,5.8,7.9,10.9,7.9c6.4,0,11.5-5.2,11.5-11.5
		C441.3,229.5,439.4,225.8,436.4,223.7z M426.7,227.9c-3.6,2.7-9.1,4.8-13,6.1c0.6-10.6,9.4-19.1,20-19.1c0.9,0,1.5,0,2.4,0
		C434.3,218.3,431,224.6,426.7,227.9z M408.5,235.8c0.3-0.6,0.3-0.9,0.6-1.2l0,0c0,0.3,0,0.6,0,0.9c0.3,13,11.2,23.6,24.5,23.6
		c13.6,0,24.5-10.9,24.5-24.5c0-13-10.6-23.9-23.6-24.5l0,0c6.4-4.2,14.2-8.8,23.9-14.8l0.3,0.3c13.6,7.3,23,21.8,23,38.5
		c0,23.3-19.4,43-43.6,43c-15.8,0-29.4-8.2-37-20.6c0-0.3-0.3-0.3-0.3-0.6C403.7,247.3,406.4,241,408.5,235.8z M472.8,200.1
		L472.8,200.1L472.8,200.1c-2.7-2.7-6.1-5.5-9.4-7.6c0,0,0,0-0.3,0l3-1.8h0.3l0,0C468.5,193.7,470.6,196.7,472.8,200.1z
		 M457.6,178.6h0.3c0.3,0.3,0.3,0.6,0.6,0.6l2.1-0.6l2.4-0.9c-0.3-0.3-0.6-0.3-0.9-0.6h0.3l38.5-13.3c-9.4,5.8-21.2,12.7-33,20
		c-0.6,0.3-1.2,0.6-1.8,0.9l-2.1,1.2l-1.8,0.9l-4.5,2.7c-5.5-2.4-11.8-3.9-18.2-3.9c-0.3,0-0.6,0-0.9,0c-0.6,0-1.2,0-2.1,0l1.2-0.3
		l17.9-6.1L457.6,178.6z M304,175.2c7.3-7.9,15.1-14.5,23.6-20h0.3h0.3c1.8-1.2,3.6-2.1,5.5-3.3c13.9-6.4,29.4-9.7,44.8-9.7
		c17.9,0,35.5,4.5,51.2,12.7h0.3h0.3c1.8,0.9,3.3,2.1,5.2,3c6.7,4.8,13,10.3,18.8,16.7l-1.8,0.6L377.3,201H377l-73.6-25.5
		C303.7,175.5,303.7,175.2,304,175.2z M255.2,163.7l37.9,13l0.9,0.9l2.7,0.9l2.1,0.6l18.2,6.4h0.3c-6.4,0.3-12.4,1.8-17.9,4.5
		c-0.6-0.3-0.9-0.3-1.2-0.6c-1.2-0.6-2.7-1.5-4.2-2.4c0,0,0-0.3,0.3-0.3c-1.2-0.3-1.8-0.6-2.4-0.9l-0.3-0.3l-0.6-0.3
		c0.3-0.3,0.3-0.3,0.6-0.6l-0.3-0.3l-1.5-0.9c-0.6-0.3-1.2-0.6-1.5-0.9c0,0.3-0.3,0.6-0.6,0.9C276.1,176.1,264.3,169.2,255.2,163.7z
		 M291.3,191c0.6,0.3,1.2,0.9,1.8,1.2c0.3,0.3,0.6,0.6,0.9,0.6c-3.6,2.4-7,5.2-10,8.5C286.1,197.6,288.8,194,291.3,191z
		 M297.9,195.2c10,6.1,17.9,11.2,24.2,14.8l0,0c-6.4,0.6-11.8,3-15.8,7.6c-4.2,4.5-7,10.6-7,17c0,13.6,10.9,24.5,24.5,24.5
		c12.7,0,23-9.7,24.2-22.1c2.1,4.8,4.5,11.2,7,19.1c0,0.3,0.3,0.6,0.3,0.9c-7.6,12.1-21.5,20-36.7,20c-23.9,0-43.6-19.7-43.6-43.6
		C275.5,216.7,284.6,202.8,297.9,195.2z M319.4,281.6c15.5,0,29.4-7.6,38.2-19.1c9.7,30.6,17.9,66.7,17.9,67
		c0.3,0.6,0.6,1.2,0.9,1.5s0.6,0.6,1.2,0.6c0.3,0,0.3,0,0.3,0h0.3c0.9,0,1.8-0.6,2.1-1.8c0.3-0.3,8.8-37,18.5-67.9
		c0-0.3,0.3-0.6,0.3-0.9c0.3,0.3,0.3,0.6,0.6,0.9c8.8,11.8,22.7,19.7,38.8,19.7c24.5,0,44.8-18.5,47.6-42.4c0-0.6,0-1.2,0.3-1.8
		c0,0.3,0,0.6,0,0.9c0.3,2.1,0.3,4.2,0.6,6.7v0.3c0,1.5,0,2.7,0,4.2c0,3.6-0.3,7-0.6,10.6c-0.9,8.2-2.7,16.4-5.5,24.2l-0.6,1.5
		c-15.5,42.4-56.1,71.2-101.2,71.5h-0.6c-45.4,0-86.4-28.8-101.8-71.5c-1.5-3.9-2.4-7.9-3.3-11.8c-0.9-10.9-1.2-22.4-1.2-34.2
		C275.2,263.4,295.2,281.6,319.4,281.6z M254.3,439.4c-3.3-13.9-5.8-27.9-7.3-41.2c-2.1-15.5-3-30.9-3-45.8c0-23.6,2.4-47,7.3-69.1
		c0.3-1.2,0.6-2.7,0.9-3.9v-0.3l2.1-7.9c3.3-12.4,7.3-24.2,11.8-35.1c0.3-0.9,0.9-2.1,1.2-3c0,0.3,0,0.9,0,1.2
		c-0.6,5.2-0.9,10.3-0.9,15.1c0,7.3,0.6,14.5,2.1,21.5c0.3,4.5,0.6,9.1,0.9,13.6l-1.2,1.8c0.6,0.3,0.9,0.6,1.5,0.9
		c5.2,58.8,17.6,104.2,31.5,138.5c-0.3,1.2-0.9,2.1-1.2,3c-6.4,17.9-9.7,37.9-9.7,59.4c0,1.5,0,3.3,0,4.8l0,0
		c-3.9,1.5-7.3,4.8-8.8,9.1c-1.5-4.2-5.2-7.9-9.4-8.8c0-0.3-0.3-0.3-0.3-0.9C264.6,476.7,258.8,458.5,254.3,439.4z M257.6,507.3
		c0-5.8,4.5-10.3,10.3-10.3h0.3c0.9,0,1.8,0.3,2.7,0.6c1.2,0.3,2.4,1.2,3.3,1.8c2.1,1.8,3.3,4.2,3.6,7v0.6c0-0.3-0.3-0.3-0.3-0.6
		v9.7c0,0.3,0.3,0.3,0.3,0.6V554c0,5.8-4.5,10-10,10c-5.8,0.6-10.3-3.9-10.3-9.7V507.3z"/>
</g>
</svg>
