<?xml version="1.0" encoding="utf-8"?>
<!-- Generator: Adobe Illustrator 21.0.0, SVG Export Plug-In . SVG Version: 6.00 Build 0)  -->
<svg version="1.1" id="Слой_1" xmlns="http://www.w3.org/2000/svg" xmlns:xlink="http://www.w3.org/1999/xlink" x="0px" y="0px"
	 viewBox="0 0 24 24" style="enable-background:new 0 0 24 24;" xml:space="preserve">
<style type="text/css">
	.st0{fill:none;}
	.st1{fill:#E2E6EA;}
</style>
<rect class="st0" width="24" height="24"/>
<path class="st1" d="M12,10.7c-2.3,0-4.2,1.9-4.2,4.2s1.9,4.2,4.2,4.2s4.2-1.9,4.2-4.2S14.3,10.7,12,10.7z M12,17.7
	c-1.5,0-2.8-1.2-2.8-2.8s1.2-2.8,2.8-2.8s2.8,1.2,2.8,2.8S13.5,17.7,12,17.7L12,17.7z M17.4,10.6c0,0.5-0.4,1-1,1c-0.5,0-1-0.4-1-1
	s0.4-1,1-1C17,9.6,17.4,10,17.4,10.6z M20.2,11.6c-0.1-1.3-0.4-2.5-1.3-3.5c-1-1-2.1-1.3-3.5-1.3C14,6.7,10,6.7,8.6,6.8
	C7.3,6.8,6.1,7.1,5.1,8.1c-1,1-1.3,2.1-1.3,3.5c-0.1,1.4-0.1,5.4,0,6.8c0.1,1.3,0.4,2.5,1.3,3.5s2.1,1.3,3.5,1.3
	c1.4,0.1,5.4,0.1,6.8,0c1.3-0.1,2.5-0.4,3.5-1.3c1-1,1.3-2.1,1.3-3.5C20.3,17,20.3,12.9,20.2,11.6L20.2,11.6z M18.4,19.8
	c-0.3,0.7-0.8,1.3-1.6,1.6c-1.1,0.4-3.7,0.3-4.9,0.3s-3.8,0.1-4.9-0.3c-0.7-0.3-1.3-0.8-1.6-1.6c-0.4-1.1-0.3-3.7-0.3-4.9
	s-0.1-3.8,0.3-4.9c0.3-0.7,0.8-1.3,1.6-1.6c1.1-0.4,3.7-0.3,4.9-0.3s3.8-0.1,4.9,0.3c0.7,0.3,1.3,0.8,1.6,1.6
	c0.4,1.1,0.3,3.7,0.3,4.9S18.9,18.8,18.4,19.8z"/>
</svg>
