<?xml version="1.0" encoding="utf-8"?>
<!-- Generator: Adobe Illustrator 21.0.0, SVG Export Plug-In . SVG Version: 6.00 Build 0)  -->
<svg version="1.1" id="Слой_1" xmlns="http://www.w3.org/2000/svg" xmlns:xlink="http://www.w3.org/1999/xlink" x="0px" y="0px"
	 viewBox="0 0 1236 720" style="enable-background:new 0 0 1236 720;" xml:space="preserve">
<style type="text/css">
	.st0{fill:#002C3D;}
</style>
<g>
	<path class="st0" d="M70.6,595.4l-20-48.9h-9.1L21.7,592l-2.7,6.1c-2,4.3-3.9,8.4-5.9,12.4l-4.2,8.6l-0.6,1.3h8.2l1-2.5l1.8-4.3
		l4.7-11.3l1.7-0.1l2.4-0.2c1.9-0.1,4.6-0.2,8-0.2h10.4c4.1,0,7.2,0.1,9.3,0.2c2.4,0.2,4,0.3,4.5,0.4l2.4,6.7
		c1.2,3.2,2.3,6.5,3.3,9.7c0.3,1,0.4,1.5,0.4,1.5H82c-1.1-2.2-2.3-4.6-3.5-7.2C75.2,606.1,72.6,600.3,70.6,595.4z M46.5,596.4h-11
		h-4.3c-1.4,0-3.1-0.1-5-0.2l16.4-39.1l15.6,39.1C56.8,596.3,52.8,596.4,46.5,596.4z"/>
	<path class="st0" d="M151.8,608.7l-0.1-2.1c-0.1-3.2-0.2-7.1-0.2-11.8v-25.7c0-1.9,0-4.7,0.1-8.3c0.1-3.6,0.3-8.4,0.7-14.4h-42.9
		c0.1,1.2,0.2,2.4,0.2,3.7l-0.1,2.4c-0.2,5.4-0.8,10.3-1.8,14.8c-2.8,12.9-5.6,23.2-8.6,30.9c-2.4,6.3-4.9,10.9-7.4,13.6
		c-1.8,2-3.6,3.1-5.6,3.3h-2.4v20.3v0.1h5.1l0.2-4.3c0.3-3.5,0.7-6.7,1.4-9.8c4-0.3,8-0.5,12.1-0.7c5.3-0.2,10.4-0.3,15.2-0.3h7.5
		c5.2,0,10.5,0.1,15.7,0.3c3.7,0.1,7.5,0.3,11.5,0.6c0.8,2.7,1.3,6,1.6,9.8l0.2,4.3h5v-20.3h-7.1C152,613.7,151.9,611.6,151.8,608.7
		z M139.6,594.8c0,3.9-0.1,7.8-0.3,11.8l-0.1,2.1c-0.1,2.9-0.2,5-0.3,6.4H95.2c1.9-1.4,3.8-3.6,5.5-6.6c2.2-3.7,4.4-8.9,6.4-15.5
		c2.4-7.8,4.6-17.4,6.6-28.7c0.4-2.4,0.8-4.7,1-7c0.2-2.1,0.4-3.8,0.5-5l2.2-0.2l2.8-0.2c2.1-0.1,4.2-0.2,6.4-0.2
		c2.6,0,4.4,0.1,5.5,0.1c2,0.1,4.4,0.2,7.1,0.4l0.1,2.1l0.2,5.4c0.1,4,0.1,7.1,0.1,9.4V594.8z"/>
	<path class="st0" d="M217.8,614.2c2.3-2,4.1-4.3,5.3-6.9s1.8-5.4,1.8-8.3c0-6.2-2.4-10.9-7.1-14.2c-3.8-2.6-9.3-4.3-16.5-5
		c2.9-0.3,5.5-0.9,7.9-1.8c2.4-0.9,4.4-2.1,6.1-3.5c1.7-1.5,3-3.1,3.9-5c0.9-1.9,1.3-4,1.3-6.2c0-2.1-0.4-4.2-1.3-6.1
		c-0.9-1.9-2.1-3.7-3.6-5.2c-1.6-1.5-3.5-2.7-5.6-3.7c-2.2-1-4.5-1.7-7.1-2c-2.6-0.2-4.8-0.3-6.5-0.3c-1.4,0.1-3.4,0.1-6.2,0.1
		c-2,0-4.1,0.1-6.3,0.2c-2.2,0.1-4.4,0.2-6.8,0.2h-6.3l0.5,7.4c0.3,6,0.5,11.4,0.5,16.2h0v26.6c0,4.8-0.1,10.2-0.4,16.2
		c-0.1,1.4-0.2,3.9-0.4,7.4h8.8c3.4,0,8.4,0.1,15,0.4c5.1,0.1,9.5-0.4,13.4-1.6C212,618,215.2,616.3,217.8,614.2z M183.6,551.5h1.9
		c1.7,0,3.3-0.1,4.8-0.2c1.6-0.1,3-0.2,4.2-0.2c4.1,0.1,7.3,1.1,9.7,2.8c3,2.2,4.5,5.5,4.5,9.8c0,3.3-1.1,6.2-3.2,8.5
		c-1.9,2-4.3,3.5-7.3,4.5c-2.3,0.8-4.5,1.2-6.5,1.2h-0.9c-0.2,0.1-0.7,0.1-1.3,0.1h-1.3c-0.4,0.1-0.7,0.1-1.1,0.1
		c-0.8,0-1.4-0.1-1.7-0.1h-1.8V551.5z M192.4,615.7c-1.4,0-2.6-0.1-3.6-0.2c-1.6-0.1-3.3-0.2-5-0.2c-0.1-0.8-0.1-2.1-0.1-4.1
		c-0.1-4.2-0.1-7.8-0.1-10.9v-6v-11.2h3.5c4,0,7.5,0.2,10.5,0.7c4.4,0.8,7.9,2.3,10.5,4.3c3.2,2.6,4.8,6.2,4.7,10.9
		c0,2.8-0.4,5.2-1.3,7.3c-1.7,4-4.9,6.8-9.7,8.2C199.1,615.3,195.9,615.7,192.4,615.7z"/>
	<path class="st0" d="M310.6,600.1c2.1-4.9,3.2-10.5,3.2-16.7c0-5.8-1-11-3-15.8s-4.8-8.9-8.4-12.3c-3.6-3.4-7.9-6-12.8-7.8
		c-4.9-1.8-10.3-2.7-16-2.8c-5.3,0-10.4,0.9-15.2,2.6c-4.9,1.7-9.1,4.2-12.8,7.5c-3.8,3.5-6.9,7.6-9,12.5
		c-2.1,4.9-3.2,10.4-3.2,16.5c0,5.7,1,11,3,15.7c2,4.8,4.8,8.8,8.5,12.2c3.6,3.3,7.9,5.9,12.8,7.7s10.2,2.7,16,2.7
		c5.3,0,10.4-0.9,15.2-2.5c4.8-1.6,9-4,12.7-7.2C305.5,609.1,308.5,605,310.6,600.1z M286.2,612.8c-2,1.1-4.1,1.9-6.3,2.5
		c-2.2,0.6-4.3,0.9-6.4,0.9c-4.2-0.1-8.1-0.9-11.6-2.6c-3.5-1.7-6.5-4.1-9-7.1s-4.3-6.4-5.6-10.4c-1.3-4-1.9-8.2-1.9-12.7
		c0-7,1.6-13.2,4.7-18.5c2.7-4.6,6.4-8.2,11-10.8c2-1.1,4.1-2,6.3-2.6c2.1-0.5,4.2-0.8,6.3-0.9c4.3,0.1,8.1,0.9,11.6,2.6
		c3.5,1.7,6.5,4,9,7.1c2.5,3,4.3,6.5,5.6,10.5c1.3,4,1.9,8.2,1.9,12.7c0,7.2-1.6,13.4-4.7,18.7C294.3,606.8,290.7,610.3,286.2,612.8
		z"/>
	<path class="st0" d="M394.5,615.5c-1.7-1.9-3.4-4.2-5-6.9c-2.4-3.9-4.6-8.2-6.7-13c-2.4-5.3-5.4-9.3-9-12c-1.6-1.2-3.2-2-4.9-2.6
		c-1.7-0.6-3.3-0.9-4.8-0.9c-2.5,0-4.6,0.3-6.4,1c-1.2,0.4-2.4,1-3.6,1.7l21.1-23.8c1.8-2.1,3.5-4.1,5.2-5.9
		c3.1-3.3,5.3-5.5,6.7-6.6h-9.4l-3.3,4.1c-2.1,2.5-4.3,5.1-6.5,7.6l-27,30.2l0.1-41.9h-13.5l0.5,7.4c0.3,6,0.5,11.5,0.5,16.3v26.4
		c0,4.9-0.1,10.3-0.4,16.3c-0.1,1.5-0.3,4-0.4,7.4H342c-0.1-1.7-0.3-4.2-0.5-7.4c-0.3-5-0.5-10.1-0.5-15.2l6.5-7.3
		c0.7-0.7,1.4-1.3,2-1.8c2.3-1.7,4.4-2.6,6.3-2.6h0.9c0.4,0,1,0.1,1.8,0.3c1.9,0.5,3.8,1.5,5.6,2.9c2.4,2,4.5,4.9,6.2,8.7
		c2.8,7.1,5.8,12.7,8.9,16.6c3.6,4.6,7.4,6.9,11.4,6.9c1.3,0,2.4-0.1,3.4-0.2c1.8-0.2,3.2-0.6,4.3-1.1l0.3-1.3
		C397.3,618.4,395.9,617.3,394.5,615.5z"/>
	<path class="st0" d="M454.5,609.1c1.2,3.2,2.3,6.5,3.3,9.7c0.3,1,0.4,1.5,0.4,1.5h15.6c-1.1-2.2-2.3-4.6-3.5-7.2
		c-3.3-7-5.9-12.8-7.9-17.7l-20-48.9h-9.1L413.5,592l-2.7,6.1c-2,4.3-3.9,8.4-5.9,12.4l-4.2,8.6l-0.6,1.3h8.2l1-2.5l1.8-4.3
		l4.7-11.3l1.7-0.1l2.4-0.2c1.9-0.1,4.6-0.2,8-0.2h10.4c4.1,0,7.2,0.1,9.3,0.2c2.4,0.2,4,0.3,4.5,0.4L454.5,609.1z M438.4,596.4h-11
		h-4.3c-1.4,0-3.1-0.1-5-0.2l16.4-39.1l15.6,39.1C448.7,596.3,444.7,596.4,438.4,596.4z"/>
	<path class="st0" d="M524.3,546.5h-56.7v7l7.1-0.6c5.1-0.5,10.2-0.8,15.3-1h0v44.9c0,2,0,4.9-0.1,8.6s-0.3,8.7-0.6,14.9h13.4
		c-0.1-1.7-0.3-4.2-0.4-7.4c-0.3-5.2-0.4-10.5-0.4-16.1v-44.9c2.2,0,5.1,0.2,8.6,0.4c5.2,0.4,9.8,0.8,13.8,1.2V546.5z"/>
	<path class="st0" d="M583.7,611.1c-1,0.6-2.4,1.3-4.1,2.1c-4.8,2.1-9.6,3.1-14.6,3.1c-3.8,0-7.3-0.8-10.6-2.5
		c-3.3-1.6-6.1-3.9-8.5-6.9c-2.4-2.9-4.2-6.4-5.5-10.3c-1.3-4-2-8.2-2-12.8c0-7.9,1.6-14.6,4.7-19.9c2.6-4.5,6.2-7.9,10.8-10.2
		c3.9-1.9,8.1-2.9,12.7-2.9c2.6,0,5,0.3,7.2,0.8c2.1,0.6,3.9,1.2,5.5,1.8c1.6,0.6,2.9,1.3,3.8,1.9c0.9,0.6,1.3,0.9,1.3,1l3.3-6.4
		c-1.8-1.1-3.7-1.9-5.7-2.5c-4.9-1.7-10.3-2.5-16-2.5c-7,0-13.3,1.3-19,3.9c-6.2,2.8-11.1,7-14.6,12.6c-3.9,6.2-5.8,13.7-5.8,22.5
		c0,5.6,0.9,10.8,2.9,15.5c1.9,4.7,4.7,8.8,8.3,12.2c3.5,3.4,7.7,6,12.5,7.8s10,2.7,15.6,2.7c3.7,0,6.9-0.3,9.5-0.9
		c5.3-1,9.5-2.6,12.7-4.6l-3-6.5L583.7,611.1z"/>
	<path class="st0" d="M653.1,607.3c1.1-2.6,1.6-5.4,1.6-8.3c0-5.1-1.9-9.4-5.7-12.8c-3.5-3.1-8.4-5.3-14.7-6.7
		c-4-0.9-8.4-1.3-13.1-1.3c-2.3,0-4.7,0.1-7.1,0.2v-8.9c0-5.5,0.2-10.8,0.4-15.9l0.4-7.2h-13.4c0,0.7,0,2.3,0.1,4.8
		c0.1,1.5,0.2,2.9,0.2,4.3s0.1,2.7,0.1,4l0.2,5c0.1,3.3,0.1,5.8,0.1,7.4v24.3c0,4.7-0.1,10.2-0.5,16.4l-0.5,7.7h8.3
		c3.3,0,6.3,0.2,8.9,0.4c2.7,0.2,5.3,0.3,7.6,0.3c5.1,0,9.5-0.6,13.2-1.8c3.7-1.2,6.7-2.9,9.1-5
		C650.5,612.2,652.1,609.9,653.1,607.3z M637.9,611.2c-3.1,2.8-7.5,4.3-13.3,4.4c-1.1,0-2.7-0.1-4.8-0.3s-4.1-0.3-5.8-0.3v-31.8
		c1.3-0.1,2.9-0.2,4.8-0.2c4.5,0,8.6,0.6,12.3,1.7c4.5,1.4,7.8,3.8,9.8,7.3c1.1,1.9,1.6,4.2,1.6,6.8
		C642.5,604.3,641,608.4,637.9,611.2z"/>
	<path class="st0" d="M730.2,621.4c1.3,0,2.4-0.1,3.4-0.2c1.8-0.2,3.2-0.6,4.3-1.1l0.3-1.3c-1.2-0.4-2.7-1.5-4.1-3.3
		c-1.7-1.9-3.4-4.2-5-6.9c-2.4-3.9-4.6-8.2-6.7-13c-2.4-5.3-5.4-9.3-9-12c-1.6-1.2-3.2-2-4.9-2.6c-1.7-0.6-3.3-0.9-4.8-0.9
		c-2.5,0-4.6,0.3-6.4,1c-1.2,0.4-2.4,1-3.6,1.7l21.1-23.8c1.8-2.1,3.5-4.1,5.2-5.9c3.1-3.3,5.3-5.5,6.7-6.6h-9.4l-3.3,4.1
		c-2.1,2.5-4.3,5.1-6.5,7.6l-27,30.2l0.1-41.9h-13.5l0.5,7.4c0.3,6,0.5,11.5,0.5,16.3v26.4c0,4.9-0.1,10.3-0.4,16.3
		c-0.1,1.5-0.3,4-0.4,7.4h14.3c-0.1-1.7-0.3-4.2-0.5-7.4c-0.3-5-0.5-10.1-0.5-15.2l6.5-7.3c0.7-0.7,1.4-1.3,2-1.8
		c2.3-1.7,4.4-2.6,6.3-2.6h0.9c0.4,0,1,0.1,1.8,0.3c1.9,0.5,3.8,1.5,5.6,2.9c2.4,2,4.5,4.9,6.2,8.7c2.8,7.1,5.8,12.7,8.9,16.6
		C722.4,619.1,726.2,621.4,730.2,621.4z"/>
	<path class="st0" d="M815.4,596.4V570c0-1.9,0-4.8,0.1-8.6s0.3-8.8,0.7-15h-14.3v0.1l-41.6,62.8V570c0-2.9,0.1-5.8,0.2-8.6
		c0.2-5.4,0.5-10.4,0.9-15h-14.2l0.4,7.4c0.3,6,0.4,11.4,0.4,16.2v26.5c0,3-0.1,5.8-0.2,8.7c-0.2,5.9-0.5,10.9-0.9,15.1h13.4
		l42.3-64.1c0.3,5.5,0.4,10.1,0.4,13.9v50.1h13.4c-0.1-1.7-0.3-4.2-0.5-7.5C815.6,607.3,815.4,601.9,815.4,596.4z"/>
	<path class="st0" d="M901.9,596.3v-26.4c0-1.9,0-4.8,0.1-8.6s0.3-8.8,0.7-15h-14.3v0.1l-41.6,62.8v-39.3c0-2.9,0.1-5.8,0.2-8.6
		c0.2-5.4,0.5-10.4,0.9-15h-14.2l0.4,7.4c0.3,6,0.4,11.4,0.4,16.2v26.5c0,3-0.1,5.8-0.2,8.7c-0.2,5.9-0.5,10.9-0.9,15.1h13.4
		l42.3-64.1c0.3,5.5,0.4,10.1,0.4,13.9v50.1h13.4c-0.1-1.7-0.3-4.2-0.5-7.5C902.1,607.2,901.9,601.8,901.9,596.3z"/>
	<path class="st0" d="M858.8,536.5c1.2,1.1,2.6,2.1,4.2,2.7c1.6,0.7,3.4,1,5.3,1c4.1,0,7.4-1.3,9.8-3.8c2.3-2.3,3.5-5.5,3.7-9.6
		l-4.1-0.4c-0.3,2.2-1.1,3.9-2.4,5.2c-1.6,1.5-4,2.2-7.1,2.2c-2.6,0-4.8-0.7-6.5-2.1c-0.8-0.7-1.4-1.5-1.9-2.4
		c-0.4-0.9-0.7-1.9-0.7-3l-4,0.4c0,2,0.4,3.8,1,5.5S857.6,535.3,858.8,536.5z"/>
	<path class="st0" d="M1024.5,600.1c2.1-4.9,3.2-10.5,3.2-16.7c0-5.8-1-11-3-15.8s-4.8-8.9-8.4-12.3c-3.6-3.4-7.9-6-12.8-7.8
		c-5-1.8-10.3-2.7-16-2.8c-5.3,0-10.4,0.9-15.2,2.6c-4.9,1.7-9.1,4.2-12.8,7.5c-3.8,3.5-6.9,7.6-9,12.5s-3.2,10.4-3.2,16.5
		c0,5.7,1,11,3,15.7c2,4.8,4.8,8.8,8.5,12.2c3.6,3.3,7.9,5.9,12.8,7.7s10.2,2.7,16,2.7c5.3,0,10.4-0.9,15.2-2.5
		c4.8-1.6,9-4,12.7-7.2C1019.4,609.1,1022.4,605,1024.5,600.1z M1000,612.8c-2,1.1-4.1,1.9-6.3,2.5c-2.2,0.6-4.3,0.9-6.4,0.9
		c-4.2-0.1-8.1-0.9-11.6-2.6c-3.5-1.7-6.5-4.1-9-7.1s-4.3-6.4-5.6-10.4s-1.9-8.2-1.9-12.7c0-7,1.6-13.2,4.7-18.5
		c2.7-4.6,6.4-8.2,11-10.8c2-1.1,4.1-2,6.3-2.6c2.2-0.5,4.3-0.8,6.3-0.9c4.3,0.1,8.1,0.9,11.6,2.6c3.5,1.7,6.5,4,9,7.1
		c2.5,3,4.3,6.5,5.6,10.5s1.9,8.2,1.9,12.7c0,7.2-1.6,13.4-4.7,18.7C1008.1,606.8,1004.5,610.3,1000,612.8z"/>
	<path class="st0" d="M1113.4,562c-3.4-2.5-7.5-4.6-12.1-6c-4.6-1.5-9.6-2.3-14.9-2.4l0.1-2.9l0.2-2.8l0.1-1.3h-14
		c0,0.8,0.1,1.4,0.1,1.9l0.1,2.2l0.2,2.8c-7,0.2-13.2,1.4-18.8,3.6c-6,2.3-10.7,5.6-14,9.8c-3.6,4.6-5.5,10.1-5.3,16.4
		c0,4.3,1,8.3,2.9,11.9c1.9,3.6,4.6,6.8,8.1,9.4c3.4,2.5,7.4,4.6,12.1,6c4.6,1.5,9.7,2.3,15.1,2.4l-0.2,3l-0.2,3l-0.1,1.2h14l-0.1-2
		l-0.1-2.2l-0.2-2.9c6.8-0.2,13-1.5,18.7-3.7c5.9-2.2,10.5-5.5,13.9-9.8c3.6-4.5,5.4-9.9,5.4-16.3c0-4.3-1-8.3-2.9-11.9
		C1119.5,567.8,1116.9,564.6,1113.4,562z M1073.6,570.2v26.6c0,4.8-0.1,8.8-0.2,12c-3.7-0.3-7.2-1.1-10.3-2.5
		c-3.2-1.5-5.9-3.3-8.1-5.7c-2.2-2.3-3.8-5-5-8c-1.1-3-1.7-6.2-1.7-9.5c0-5.3,1.4-10,4.1-13.9c2.3-3.3,5.5-6,9.6-8.1
		c3.4-1.8,7.2-2.9,11.3-3.3C1073.5,562,1073.6,566.1,1073.6,570.2L1073.6,570.2z M1107.2,597.2c-2.3,3.3-5.5,6.1-9.6,8.2
		c-3.6,1.8-7.3,2.9-11.3,3.3l-0.1-3.2c-0.1-3.6-0.1-6.5-0.1-8.7v-26.5c0-4.9,0.1-9,0.2-12.4c3.7,0.3,7.1,1.1,10.2,2.5
		c3,1.4,5.7,3.2,7.9,5.6c2.1,2.3,3.7,4.9,4.9,7.9c1.1,2.9,1.7,6.1,1.9,9.4C1111.2,588.7,1109.9,593.3,1107.2,597.2z"/>
	<path class="st0" d="M1149.1,613c-0.3-5.3-0.4-10.7-0.4-16.2v-27.6c0-2,0-4.9,0.1-8.5c0.1-3.8,0.3-8.5,0.7-14.2H1136
		c0.2,3.3,0.3,5.6,0.4,7c0.3,5.7,0.4,10.9,0.4,15.7v27.6c0,4.8-0.1,10.2-0.4,16.2c-0.1,1.4-0.2,3.9-0.4,7.4h13.6l-0.3-4.2
		L1149.1,613z"/>
	<path class="st0" d="M1221,610.1l-1.4,1c-1,0.6-2.4,1.3-4.1,2.1c-4.8,2.1-9.6,3.1-14.6,3.1c-3.8,0-7.3-0.8-10.6-2.5
		c-3.3-1.6-6.1-3.9-8.5-6.9c-2.4-2.9-4.2-6.4-5.5-10.3c-1.3-4-2-8.2-2-12.8c0-7.9,1.6-14.6,4.7-19.9c2.6-4.5,6.2-7.9,10.8-10.2
		c3.9-1.9,8.1-2.9,12.7-2.9c2.6,0,5,0.3,7.2,0.8c2.1,0.6,3.9,1.2,5.5,1.8c1.6,0.6,2.9,1.3,3.8,1.9s1.3,0.9,1.3,1l3.3-6.4
		c-1.8-1.1-3.7-1.9-5.7-2.5c-4.9-1.7-10.3-2.5-16-2.5c-7,0-13.3,1.3-19,3.9c-6.2,2.8-11.1,7-14.6,12.6c-3.9,6.2-5.8,13.7-5.8,22.5
		c0,5.6,0.9,10.8,2.9,15.5c1.9,4.7,4.7,8.8,8.3,12.2c3.5,3.4,7.7,6,12.5,7.8c4.8,1.8,10,2.7,15.6,2.7c3.7,0,6.9-0.3,9.5-0.9
		c5.3-1,9.5-2.6,12.7-4.6L1221,610.1z"/>
	<polygon class="st0" points="198.5,697.9 202.6,697.9 202.6,661.5 221.2,661.5 221.2,657.9 198.5,657.9 	"/>
	<path class="st0" d="M236.4,670.8c-3.7,0-7.7,1.9-9.9,5.3h-0.2v-4.6h-3.8v40h3.8v-18h0.2c2.2,3.2,6.1,5.1,9.9,5.1
		c8.3,0,13.7-6.1,13.7-13.9C250.1,676.9,244.6,670.8,236.4,670.8z M236,695.3c-6,0-10.2-4.6-10.2-10.6c0-6.1,4.3-10.7,10.2-10.7
		c6.4,0,10,4.8,10,10.7C246,690.6,242.4,695.3,236,695.3z"/>
	<polygon class="st0" points="264,692.6 263.9,692.6 263.9,671.5 260.1,671.5 260.1,697.9 264.3,697.9 279.9,676.5 280,676.5 
		280,697.9 283.8,697.9 283.8,671.5 279.6,671.5 	"/>
	<polygon class="st0" points="318.1,671.5 314.3,671.5 314.3,694.6 299.5,694.6 299.5,671.5 295.7,671.5 295.7,697.9 318.7,697.9 
		318.7,706.5 322.3,706.5 322.3,694.6 318.1,694.6 	"/>
	<path class="st0" d="M351.5,680.5c0-6.4-4.6-9.6-10.3-9.6c-4.5,0-8.3,1.7-10.4,3.8l2.1,2.5c1.9-1.9,4.8-3.1,7.9-3.1
		c4.6,0,7.1,2.2,7.1,6.8v0.8c-9.6,0-18.6,0.8-18.6,8.9c0,5.8,5.1,8,9.1,8c4.2,0,7.2-1.5,9.6-5h0.2c0,1.4,0.2,3,0.4,4.3h3.4
		c-0.3-1.4-0.5-3.9-0.5-5.9V680.5z M347.9,686.7c0,4.7-3,8.7-8.5,8.7c-3,0-6.2-1.2-6.2-5c0-5,7.3-5.7,13.6-5.7h1.1V686.7z"/>
	<polygon class="st0" points="385,671.5 379.5,671.5 367.3,684 367.1,684 367.1,671.5 363.4,671.5 363.4,698 367.2,698 367.2,684.7 
		367.4,684.7 380.8,698 386.4,698 371.7,684.2 	"/>
	<path class="st0" d="M418.6,667.9c-5.5,0-10,4.5-10,10s4.5,10,10,10s10-4.5,10-10S424.1,667.9,418.6,667.9z"/>
	<polygon class="st0" points="451.1,661.5 464.4,661.5 464.4,697.9 468.5,697.9 468.5,661.5 481.9,661.5 481.9,657.9 451.1,657.9 	
		"/>
	<path class="st0" d="M495.4,670.8c-7.5,0-13.3,5.9-13.3,13.9s5.8,13.9,13.7,13.9c4.4,0,8.3-1.6,11.4-5.6l-2.9-2.3
		c-1.5,2.4-4.5,4.6-8.5,4.6c-5.5,0-9.6-4.3-9.7-9.6H508c0.1-0.7,0.1-1.3,0.1-1.8C508.1,676.7,503.7,670.8,495.4,670.8z M486.1,682.7
		c0.4-4.5,4.2-8.6,9.3-8.6c5.5,0,8.6,3.6,8.8,8.6H486.1z"/>
	<path class="st0" d="M532,670.8c-3.7,0-7.7,1.9-9.9,5.3h-0.2v-4.6h-3.8v40h3.8v-18h0.2c2.2,3.2,6.1,5.1,9.9,5.1
		c8.3,0,13.7-6.1,13.7-13.9C545.7,676.9,540.2,670.8,532,670.8z M531.6,695.3c-6,0-10.2-4.6-10.2-10.6c0-6.1,4.3-10.7,10.2-10.7
		c6.4,0,10,4.8,10,10.7C541.6,690.6,538,695.3,531.6,695.3z"/>
	<polygon class="st0" points="574.7,682.6 559.5,682.6 559.5,671.5 555.7,671.5 555.7,697.9 559.5,697.9 559.5,685.8 574.7,685.8 
		574.7,697.9 578.5,697.9 578.5,671.5 574.7,671.5 	"/>
	<path class="st0" d="M602.7,670.8c-8.2,0-14.1,5.9-14.1,13.9s5.8,13.9,14.1,13.9c8.2,0,14.1-5.9,14.1-13.9S610.9,670.8,602.7,670.8
		z M602.6,695.3c-6.1,0-10-4.7-10-10.6c0-6,3.9-10.7,10-10.7c6.2,0,10.1,4.8,10.1,10.7C612.7,690.6,608.8,695.3,602.6,695.3z"/>
	<path class="st0" d="M651.7,667.9c-5.6,0-10,4.5-10,10s4.5,10,10,10s10-4.5,10-10S657.2,667.9,651.7,667.9z"/>
	<path class="st0" d="M700.8,675.2h-8v-13.7h19.7v-3.6h-23.7v40h12.1c8.7,0,14.3-3.7,14.3-11.3C715.2,679,709.4,675.2,700.8,675.2z
		 M700.4,694.4L700.4,694.4l-7.6,0v-15.6h7.6c6.8,0,10.6,2.8,10.6,7.9C711,692,707.1,694.4,700.4,694.4z"/>
	<path class="st0" d="M733.9,693.8L733.9,693.8l-9.1-22.3h-4.3l11.3,26.4l-2.1,5.5c-1.1,3-2.5,4.7-5.1,4.7c-1,0-2-0.2-2.8-0.5
		l-0.4,3.5c1.1,0.3,2.3,0.4,3.4,0.4c4.6,0,6.7-2.6,8.3-6.7l13.2-33.3h-4.2L733.9,693.8z"/>
	<path class="st0" d="M768.3,670.8c-5,0-9.3,2-11.6,6.7h-0.2c0.1-12.3,3-15.3,10.6-16.3l7.5-1c3.8-0.6,5.5-1.9,6.3-4.9l-2.8-0.8
		c-0.5,1.8-2.3,2.3-4.7,2.6l-8,1c-10.6,1.3-12.1,9.8-12.1,22.5c0,6.8,0.9,10,2.5,12.5c2.3,3.6,6.3,5.5,11.6,5.5
		c8.2,0,14.1-5.9,14.1-13.9S776.1,670.8,768.3,670.8z M767.2,695.3c-6.1,0-10-4.7-10-10.6c0-6,3.9-10.7,10-10.7
		c6.2,0,10.1,4.8,10.1,10.7C777.3,690.6,773.4,695.3,767.2,695.3z"/>
	<path class="st0" d="M802.8,670.8c-7.5,0-13.3,5.9-13.3,13.9s5.8,13.9,13.7,13.9c4.4,0,8.3-1.6,11.4-5.6l-2.9-2.3
		c-1.5,2.4-4.5,4.6-8.5,4.6c-5.5,0-9.6-4.3-9.7-9.6h21.9c0.1-0.7,0.1-1.3,0.1-1.8C815.5,676.7,811.1,670.8,802.8,670.8z
		 M793.5,682.7c0.4-4.5,4.2-8.6,9.3-8.6c5.5,0,8.6,3.6,8.8,8.6H793.5z"/>
	<polygon class="st0" points="844.5,682.6 829.3,682.6 829.3,671.5 825.5,671.5 825.5,697.9 829.3,697.9 829.3,685.8 844.5,685.8 
		844.5,697.9 848.3,697.9 848.3,671.5 844.5,671.5 	"/>
	<polygon class="st0" points="897.3,671.5 893.5,671.5 893.5,694.6 880.7,694.6 880.7,671.5 876.9,671.5 876.9,694.6 864.1,694.6 
		864.1,671.5 860.3,671.5 860.3,697.9 897.9,697.9 897.9,706.5 901.5,706.5 901.5,694.6 897.3,694.6 	"/>
	<polygon class="st0" points="914.4,692.6 914.3,692.6 914.3,671.5 910.5,671.5 910.5,697.9 914.7,697.9 930.3,676.5 930.4,676.5 
		930.4,697.9 934.2,697.9 934.2,671.5 930,671.5 	"/>
	<polygon class="st0" points="967.9,671.5 962.4,671.5 950.2,684 950,684 950,671.5 946.3,671.5 946.3,698 950.1,698 950.1,684.7 
		950.3,684.7 963.7,698 969.3,698 954.6,684.2 	"/>
	<path class="st0" d="M987.8,670.8c-8.2,0-14.1,5.9-14.1,13.9s5.9,13.9,14.1,13.9c8.2,0,14.1-5.9,14.1-13.9S996,670.8,987.8,670.8z
		 M987.8,695.3c-6.1,0-10-4.7-10-10.6c0-6,3.9-10.7,10-10.7c6.2,0,10.1,4.8,10.1,10.7C997.9,690.6,994,695.3,987.8,695.3z"/>
	<path class="st0" d="M1028.2,684L1028.2,684c2.7-0.7,4.6-2.9,4.6-5.7c0-5.3-4.4-6.8-8.5-6.8h-12.4v26.4h12.4c6.1,0,9.8-2.9,9.8-7.3
		C1034.1,686.8,1031.6,684.4,1028.2,684z M1015.9,674.6h7.7c3,0,5.5,1.1,5.5,4c0,3-2.7,4-4.9,4h-8.3V674.6z M1023.8,694.6h-8.1v-8.9
		h8.5c3.7,0,5.9,1.5,5.9,4.5C1030.1,693.4,1027.2,694.6,1023.8,694.6z"/>
	<path class="st0" d="M525.1,93.4c0,0,0,0.1,0.1,0.1c0.1,0.1,0.2,0.2,0.3,0.3c0.1,0.2,0.2,0.3,0.4,0.4l-1.1-1.3
		C524.9,93.1,525,93.2,525.1,93.4z"/>
	<path class="st0" d="M521.9,69.6c0.1,0.1,0.2,0.2,0.3,0.2s0.2,0,0.2-0.1c0.2-0.1,0.2-0.3,0.1-0.5l-15.4-24
		c-0.1-0.2-0.3-0.2-0.5-0.1c-0.2,0.1-0.2,0.3-0.1,0.5L521.9,69.6z"/>
	<path class="st0" d="M517.6,103.2c0.1,0,0.2-0.1,0.2,0c0.2-0.1,0.2-0.3,0.1-0.5l-28.7-35.3c-0.1-0.2-0.3-0.2-0.5-0.1
		c-0.2,0.1-0.2,0.3-0.1,0.5l28.7,35.3C517.4,103.2,517.5,103.2,517.6,103.2z"/>
	<path class="st0" d="M473.7,94.2l42.4,35c0,0.1,0.1,0.1,0.2,0.1c0.1,0,0.2,0,0.3-0.2c0.1-0.1,0.1-0.4-0.1-0.5l-42.4-35
		c-0.1-0.1-0.4-0.1-0.5,0.1C473.5,93.8,473.5,94.1,473.7,94.2z"/>
	<path class="st0" d="M518.9,152.7c0.1,0.1,0.1,0.1,0.2,0.1c0.2,0,0.3-0.1,0.3-0.2c0.1-0.2,0.1-0.4-0.1-0.5l-53.8-35
		c-0.2-0.1-0.4-0.1-0.5,0.1c-0.1,0.2-0.1,0.4,0.1,0.5L518.9,152.7z"/>
	<path class="st0" d="M726.2,45.1c-0.2-0.1-0.4-0.1-0.5,0.1l-15.4,24c-0.1,0.2-0.1,0.4,0.1,0.5c0.1,0.1,0.1,0.1,0.2,0.1
		c0.2,0,0.3,0,0.3-0.2l15.4-24C726.4,45.4,726.4,45.2,726.2,45.1z"/>
	<path class="st0" d="M715,103.1c0,0.1,0.1,0.1,0.2,0.1c0.1,0,0.2-0.1,0.3-0.2l28.7-35.3c0.1-0.1,0.1-0.4-0.1-0.5
		c-0.1-0.1-0.4-0.1-0.5,0.1l-28.7,35.3C714.8,102.7,714.8,103,715,103.1z"/>
	<path class="st0" d="M716.2,129.2c0.1,0.1,0.2,0.1,0.3,0.1s0.2,0,0.2,0l42.4-35c0.2-0.1,0.2-0.3,0.1-0.5s-0.3-0.2-0.5-0.1l-42.4,35
		C716.1,128.8,716.1,129,716.2,129.2z"/>
	<path class="st0" d="M713.7,152.8c0.1,0,0.2,0,0.2-0.1l53.8-35c0.2-0.1,0.2-0.3,0.1-0.5s-0.3-0.2-0.5-0.1l-53.8,35
		c-0.2,0.1-0.2,0.3-0.1,0.5C713.5,152.7,713.6,152.8,713.7,152.8z"/>
	<path class="st0" d="M556.8,232.8l59.6-110.3l59,109.4c0.5-1.1,0.9-2.6,1.1-2.8l-60-111.2L556,229.7
		C556.1,230.9,556.4,231.6,556.8,232.8z"/>
	<path class="st0" d="M710.7,297l8.6,15.9c0.5-0.5,1.3-0.8,2.1-0.7l-8.7-16C712.2,296.8,711.4,297.1,710.7,297z"/>
	<path class="st0" d="M519.7,297l-8.9,16.5c0.7-0.1,1.5,0.3,2,0.9l9-16.6C521,297.9,520.2,297.6,519.7,297z"/>
	<path class="st0" d="M493.5,356.9c0.7-1.5-0.9-3.1-2.5-3.9c1.4,0.3,3.5,0.4,4.1-1c0.6-1.1-0.3-2.4-2-3.1c-1.1-0.6-1.7-0.5-2.4-0.4
		c-0.2,0-0.3,0-0.4,0c-0.2-0.1-0.2-0.3,0-0.8c-0.1,0-0.2-0.1-0.3-0.1c-0.2,0.5-0.6,1.3-1.3,2.8c0.1,0,0.2,0.1,0.3,0.1
		c0.8-1.3,2.1-2.2,3.5-1.5c0.9,0.5,1.2,1.2,0.6,2.4c-0.4,0.9-1,1.6-2.2,1.5c-0.2-0.1-0.3-0.2-0.5-0.3c-0.2,0-0.3,0-0.4,0.1
		s0.1,0.2,0.2,0.3c0.2,0.1,0.4,0.1,0.6,0.1c1.1,0.6,1.2,1.9,0.7,3c-0.7,1.4-1.9,1.8-3.4,1.1c-0.8-0.4-1.3-0.9-1.5-1.3
		c0.7,0.2,1.3,0,1.5-0.5c0.3-0.7,0-1.2-0.6-1.5s-1.3-0.2-1.6,0.4c-0.2,0.5-0.1,1.1,0.2,1.5c0.4,0.7,1.2,1.3,2.1,1.7
		C490.3,358.5,492.8,358.5,493.5,356.9z"/>
	<path class="st0" d="M501.3,361.9c0-3.1,0-6.1,0.1-9.2c-0.2-0.1-0.3-0.1-0.5-0.2c-0.1-0.1-0.3-0.1-0.4-0.2c-2.1,2-4.1,4-6.2,5.9
		c-0.7,0.8-1.3,0.9-1.7,0.8c0,0-0.1,0.1-0.1,0.2c0.2,0.1,0.6,0.2,1,0.4c0.5,0.3,1,0.5,1.6,0.8c0,0,0.1-0.1,0.1-0.2
		c-0.7-0.4-1.1-0.8-0.8-1.4c0.2-0.3,0.5-0.7,1-1.2c0.2-0.2,0.5-0.5,0.7-0.7c1,0.5,1.9,0.9,2.9,1.3c-0.1,0.8-0.1,1.6-0.1,2.4
		c0,0.3,0,0.6-0.1,0.7c-0.1,0.3-0.4,0.3-1.1,0c0,0-0.1,0.1-0.1,0.2c0.5,0.1,1.3,0.4,2.1,0.8c0.7,0.3,1.5,0.7,2,0.9
		c0,0,0.1-0.1,0.1-0.2C501.6,362.9,501.3,362.6,501.3,361.9z M499.1,357.9c-0.9-0.4-1.8-0.8-2.7-1.2c0.9-0.9,1.9-1.8,2.8-2.7
		C499.1,355.3,499.1,356.6,499.1,357.9z"/>
	<path class="st0" d="M510.6,365.8c-0.6-1.9-1.1-3.7-1.4-5.6c0.8-0.5,1.7-1,2.5-1.5s1.6-0.8,2.2-0.7c0-0.1,0.1-0.2,0.1-0.3
		c-0.3-0.1-0.7-0.2-1.2-0.4c-0.4-0.2-1.1-0.5-1.6-0.7c0,0.1-0.1,0.2-0.1,0.3c0.6,0.3,0.9,0.7,0.7,1.1c-0.1,0.3-0.5,0.6-1.1,1
		c-0.5,0.3-1,0.6-1.5,0.9c-0.3-1.2-0.6-2.3-0.9-3.5c0-0.1,0-0.2,0-0.3c0-0.2,0.3-0.1,0.9,0.1c0-0.1,0.1-0.2,0.1-0.3
		c-0.4-0.2-1.2-0.5-2-0.8c-0.7-0.3-1.4-0.6-1.8-0.8c0,0.1-0.1,0.2-0.1,0.3c0.4,0.2,0.5,0.4,0.6,1c0.4,1.7,0.8,3.4,1.2,5.1
		c-0.9,0.5-1.8,1-2.7,1.5c-1,0.5-1.9,0.8-2.6,0.7c0,0-0.1,0.1-0.1,0.2c0.3,0.1,0.8,0.3,1.3,0.5c0.4,0.2,1.6,0.7,2.1,0.9
		c0,0,0.1-0.1,0.1-0.2c-0.7-0.3-1-0.8-0.8-1.3c0.1-0.4,0.5-0.7,1.1-1.1c0.5-0.3,1.1-0.6,1.6-0.9c0.3,1.4,0.6,2.7,1,4
		c0,0.2,0,0.2,0,0.3c-0.1,0.2-0.4,0.1-1-0.1c0,0.1-0.1,0.2-0.1,0.3c0.4,0.1,1.4,0.5,2.2,0.8c0.7,0.3,1.4,0.7,1.8,0.8
		c0-0.1,0.1-0.2,0.1-0.3C510.9,366.6,510.8,366.4,510.6,365.8z"/>
	<path class="st0" d="M515.7,368.4c-0.8-0.4-0.9-0.5-0.7-1.3c2-1.5,4-3.1,6-4.7c-0.7,1.9-1.4,3.9-2.1,5.9c-0.3,0.9-0.5,1-1.4,0.7
		c0,0.1-0.1,0.2-0.1,0.3c0.5,0.2,1.3,0.4,2.1,0.7c0.9,0.3,1.7,0.6,2.2,0.8c0-0.1,0.1-0.2,0.1-0.3c-0.9-0.3-1-0.5-0.7-1.4
		c0.7-2.1,1.4-4.2,2.1-6.3c0.3-1,0.5-1,1.4-0.8c0-0.1,0.1-0.2,0-0.4c-0.4-0.2-1.3-0.4-2.1-0.7c-0.7-0.2-1.5-0.5-2-0.7
		c0,0.1-0.1,0.2-0.1,0.3c0.8,0.3,0.9,0.4,0.7,1.2c-2,1.6-4,3.2-6,4.8c0.7-2,1.4-3.9,2.1-5.9c0.3-0.9,0.5-1,1.4-0.7
		c0-0.1,0.1-0.2,0.1-0.3c-0.5-0.2-1.3-0.4-2-0.7c-0.9-0.3-1.7-0.6-2.1-0.8c0,0.1-0.1,0.2-0.1,0.3c0.8,0.4,0.9,0.6,0.6,1.5
		c-0.7,2-1.5,4.1-2.3,6.2c-0.3,0.9-0.5,1-1.4,0.7c0,0.1-0.1,0.2-0.1,0.3c0.5,0.2,1.3,0.5,2.2,0.8c0.8,0.3,1.6,0.6,2.1,0.8
		C515.6,368.6,515.7,368.5,515.7,368.4z"/>
	<path class="st0" d="M527.5,372.9c1.2,0.3,2,0.1,2.8-0.1c0.1,0,0.2,0,0.3,0c0.2,0.1,0.2,0.4,0.1,0.9c0.1,0,0.2,0.1,0.3,0.1
		c0.1-0.7,0.4-1.7,0.9-3.3c-0.1,0-0.2-0.1-0.3-0.1c-0.5,1.2-0.9,1.9-1.8,2.2c-0.6,0.3-1.3,0.3-1.9,0.1c-2-0.7-2.1-3-1.4-5.3
		c0.8-2.3,2.2-4.2,4.1-3.6c0.6,0.2,1.2,0.6,1.5,1.2c0.5,0.7,0.5,1.4,0.3,2.6c0.1,0,0.2,0.1,0.3,0.1c0.5-1.6,0.8-2.5,1-3.1
		c-0.1,0-0.2-0.1-0.3-0.1c-0.2,0.5-0.4,0.8-0.6,0.7c0,0-0.1-0.1-0.2-0.2c-0.5-0.6-1-1.3-2.1-1.6c-2.8-0.8-5.3,0.4-6.3,3.3
		S524.6,372,527.5,372.9z"/>
	<path class="st0" d="M539,375.9c0.1-0.1,0.1-0.2,0.1-0.3c-1.3-0.3-1.5-0.5-1.2-1.6c0.6-2.5,1.3-4.9,2-7.4c0.1,0,0.2,0.1,0.3,0.1
		c1.3,0.4,1.8,1.3,1.7,3.6c0.1,0,0.2,0.1,0.3,0.1c0-0.2,0.1-0.6,0.2-1s0.4-1.3,0.8-2.4c-1.3-0.3-3-0.8-4.2-1.1
		c-1.2-0.3-2.9-0.8-4.1-1.2c-0.2,0.9-0.5,1.8-0.6,2.2s-0.2,0.8-0.3,1c0.1,0,0.2,0.1,0.3,0.1c1.1-2.1,2-2.6,3.3-2.2
		c0.1,0,0.2,0.1,0.3,0.1c-0.7,2.5-1.4,4.9-2.1,7.4c-0.3,1.1-0.6,1.1-1.8,0.8c-0.1,0.1-0.1,0.2-0.1,0.3c0.5,0.2,1.5,0.4,2.5,0.7
		S538.4,375.7,539,375.9z"/>
	<path class="st0" d="M541.3,375.7c-0.2,0.6,0.2,1.1,0.9,1.3s1.2-0.1,1.4-0.7s-0.2-1.1-0.9-1.3C542,374.8,541.5,375.1,541.3,375.7z"
		/>
	<path class="st0" d="M550.3,378.7c1.1,0.3,2.3,0.6,3.4,0.8c1.3,0.3,2,1,1.9,2.8c0.1,0.1,0.2,0.1,0.3,0.1c0-0.3,0-0.6,0.1-0.9
		c0-0.3,0.2-1,0.4-1.7c-0.1,0-0.3,0-0.3,0c-0.9-0.2-1-0.4-0.8-1.4c0.5-2.2,0.9-4.3,1.4-6.5c0.2-1,0.4-1.1,1.3-0.9
		c0.1-0.1,0.1-0.2,0.1-0.3c-0.5-0.1-1.4-0.3-2.1-0.4c-0.7-0.2-1.2-0.3-1.9-0.5c-0.4-0.1-0.8-0.1-1.2-0.2c-0.4-0.1-1-0.3-1.4-0.4
		c-0.1,0.1-0.1,0.2-0.1,0.3c0.8,0.2,1,0.4,0.9,1.1c0,0.1-0.1,0.2-0.1,0.3c-1,3.4-2.1,7.5-4.3,7c-0.1-0.1-0.2-0.1-0.3-0.1
		c-0.1,0.7-0.2,1.4-0.3,1.7c0,0.3-0.1,0.6-0.2,0.8c0.1,0,0.2,0.1,0.3,0.1C548.1,378.8,549,378.4,550.3,378.7z M552.4,371
		c0.3-0.9,0.5-1,1.1-0.9c0.1,0,0.1,0,0.2,0c0.7,0.1,0.9,0.3,0.7,1.3c-0.5,2.2-1,4.3-1.4,6.6c-0.2,1-0.4,1.1-1.4,0.9
		c-1-0.3-1.9-0.5-2.9-0.7C550.7,377.5,551.6,373.5,552.4,371z"/>
	<path class="st0" d="M561.9,381.4c2.9,0.5,5.3-1.1,5.8-4.1c0.6-3-1.1-5.1-4-5.6c-2.8-0.5-5.2,1.1-5.8,4
		C557.3,378.7,558.9,380.8,561.9,381.4z M560.2,376c0.5-2.7,1.9-4.4,3.4-4.2c1.4,0.3,2.3,2.3,1.8,5.1s-1.8,4.5-3.4,4.2
		C560.5,380.8,559.6,378.8,560.2,376z"/>
	<path class="st0" d="M573.5,383.5c1.2,0.2,1.9-0.1,2.7-0.5c0.1-0.1,0.2-0.1,0.3-0.1c0.2,0,0.2,0.2,0.2,0.8c0.1,0,0.2,0,0.3,0
		c0.1-0.8,0.2-1.7,0.4-3.4c-0.1,0-0.2,0-0.3,0c-0.3,1.2-0.6,2-1.4,2.4c-0.6,0.4-1.3,0.5-1.9,0.4c-2.1-0.3-2.6-2.6-2.2-5
		c0.3-2.4,1.4-4.5,3.4-4.2c0.6,0.1,1.2,0.4,1.6,0.9c0.6,0.7,0.7,1.4,0.7,2.6c0.1,0,0.2,0,0.3,0c0.2-1.6,0.4-2.5,0.5-3.2
		c-0.1,0-0.2,0-0.3,0c-0.2,0.5-0.3,0.7-0.5,0.7c-0.1-0.1-0.2-0.1-0.3-0.2c-0.6-0.6-1.2-1.1-2-1c-2.9-0.4-5.2,1.2-5.7,4.2
		C568.8,381,570.5,383.1,573.5,383.5z"/>
	<path class="st0" d="M578.1,383.9c0.5,0,1.4,0.1,2.2,0.2c1.2,0.1,2.1,0.2,2.5,0.3c2.5,0.2,4-0.5,4.2-2.2c0.1-1.1-0.7-2.3-3.3-2.8
		c2-0.2,2.9-1.2,3-2c0.1-1.3-0.9-2.2-3.2-2.5c-0.4,0-1.3-0.1-2.2-0.2c-0.8-0.1-1.6-0.2-2.1-0.3c0,0.1,0,0.2,0,0.3
		c0.9,0.2,1,0.3,0.9,1.3c-0.2,2.2-0.5,4.4-0.8,6.6c-0.1,1-0.3,1.1-1.2,1C578.1,383.7,578.1,383.8,578.1,383.9z M582.3,376.1
		c0.1-0.9,0.3-1.1,1-1c0.9,0.1,1.2,0.8,1.1,2.1c-0.1,1.2-0.6,2.2-1.9,2c-0.2-0.1-0.4-0.1-0.6-0.1
		C582.1,378.1,582.2,377.1,582.3,376.1z M581.5,382.7c0.1-1.1,0.3-2.3,0.4-3.4c0.2,0.1,0.4,0.1,0.6,0.1c1.7,0.2,2.2,1,2.1,2.4
		c-0.2,1.5-0.8,2.3-2.3,2.1C581.5,383.8,581.4,383.6,581.5,382.7z"/>
	<path class="st0" d="M592,385.2c0-0.1,0-0.2,0-0.3c-0.9-0.1-1.1-0.2-1-1.2c0.2-2.2,0.4-4.4,0.6-6.6c0-1,0.2-1.1,1.1-1.1
		c0-0.1,0-0.2,0-0.3c-0.5,0-1.3,0-2.1-0.1c-0.9,0-1.7-0.1-2.2-0.2c0,0.1,0,0.2,0,0.3c0.8,0.1,1,0.2,0.9,1.2
		c-0.2,2.2-0.4,4.4-0.6,6.6c-0.1,0.9-0.3,1-1.2,1c0,0.1,0,0.2,0,0.3c0.5,0,1.4,0.1,2.3,0.2C590.6,385,591.5,385.1,592,385.2z"/>
	<path class="st0" d="M592.4,385.1c0.1,0.7,0,1.4,0,1.7c0,0.4-0.1,0.7-0.1,0.9c0.1,0,0.2,0,0.3,0c0.4-1.8,1.3-2.3,2.6-2.2
		c1.2,0.1,2.3,0.1,3.5,0.2c1.3,0.1,2.1,0.7,2.3,2.5c0.1,0,0.2,0,0.3,0c0-0.2,0-0.5,0-0.9c0-0.3,0.1-1,0.2-1.7c-0.1,0-0.2,0-0.6,0.1
		c-0.9,0-1.1-0.2-1-1.2c0.2-2.3,0.3-4.5,0.4-6.7c0.1-1,0.3-1.1,1.2-1.1c0-0.1,0-0.2,0-0.3c-0.4,0-1.4-0.1-2.1-0.1
		c-0.8-0.1-1.3-0.2-2-0.2c-0.4,0-0.8,0-1.2,0s-1,0-1.4-0.1c0,0.1,0,0.2,0,0.3c0.9,0.1,1.1,0.2,1.1,0.9c0,0.1,0,0.2,0,0.3
		c-0.5,3.5-1,7.8-3.2,7.6C592.6,385.1,592.5,385.1,592.4,385.1z M596.2,377.5c0.2-1,0.4-1.1,1-1.1c0.1,0,0.1,0,0.2,0
		c0.7,0,1,0.2,0.9,1.2c-0.2,2.2-0.3,4.4-0.6,6.7c0,1-0.2,1.2-1.2,1.1c-0.9-0.1-1.9-0.1-2.9-0.2C595.5,384.2,595.8,380.1,596.2,377.5
		z"/>
	<path class="st0" d="M603.6,386.1c0.8,0,1.3-0.4,1.3-1s-0.4-1-1.2-1.1c-0.8,0-1.3,0.4-1.3,1C602.4,385.7,602.9,386.1,603.6,386.1z"
		/>
	<path class="st0" d="M614,386.2c0-0.1,0-0.2,0-0.3c-0.9-0.1-1.1-0.2-1.1-1.2c0-2.3,0.1-4.5,0.1-6.7c0-0.9,0.2-1.1,1.1-1.1
		c0.4,0,0.9,0,1.4,0c0.9,0,1.1,0.2,1.1,1.2c0,2.3,0,4.5,0,6.7c0,1-0.2,1.2-1.1,1.2c0,0.1,0,0.2,0,0.3c0.6,0,1.4,0,2.2,0
		c1,0,1.8,0,2.3,0c0-0.1,0-0.2,0-0.3c-0.9,0-1.1-0.1-1.1-1.1c-0.1-2.3-0.1-4.5-0.1-6.7c0-1,0.1-1.2,1-1.2c0-0.1,0-0.2,0.1-0.5
		c-0.5,0.1-1.3,0.1-2.2,0.1c-1.1,0-2.2,0-2.9,0c-0.6,0-1.8,0-2.9,0c-0.9,0-1.7-0.1-2.2-0.1c0,0.1,0,0.2,0,0.3c0.9,0.1,1,0.2,1,1.2
		c0,2.3-0.1,4.5-0.1,6.7c0,0.9-0.2,1.1-1.1,1.1c0,0.1,0,0.2,0,0.3c0.5,0,1.4,0,2.3,0C612.6,386.1,613.5,386.2,614,386.2z"/>
	<path class="st0" d="M621.8,378c0,2.3,0.1,4.5,0.1,6.7c0.1,1-0.1,1.1-1,1.2c0,0.1,0,0.2,0,0.3c0.7,0,1.5-0.1,2.3-0.1c1,0,2,0,2.6,0
		c0-0.1,0-0.2,0-0.3c-1.3,0-1.6-0.2-1.6-1.2c-0.1-0.8-0.1-1.5-0.2-2.4c0.3,0,0.5,0,0.8,0c3.3-0.1,4.2-1.9,4.1-3.2
		c0-1.6-1.3-2.6-3.9-2.5c-0.4,0-1.3,0.1-2.2,0.1c-0.8,0-1.6,0-2.1,0c0,0.1,0,0.2,0,0.3C621.6,376.9,621.8,377,621.8,378z
		 M624.8,376.8c1.3,0,1.7,0.8,1.8,2.5c0.1,1.4-0.2,2.7-1.9,2.7c-0.2,0-0.4,0-0.6,0c0-1.3-0.1-2.7-0.1-4
		C624,377.1,624.1,376.9,624.8,376.8z"/>
	<path class="st0" d="M635.2,385.8c3-0.2,4.9-2.4,4.7-5.4c-0.3-3-2.4-4.6-5.3-4.5c-2.9,0.2-4.8,2.3-4.7,5.3
		C630.1,384.3,632.2,386,635.2,385.8z M634.6,376.2c1.5-0.1,2.8,1.6,3,4.5c0.2,2.8-0.7,4.8-2.3,4.9c-1.5,0.1-2.9-1.6-3-4.5
		C632.1,378.3,633,376.3,634.6,376.2z"/>
	<path class="st0" d="M646.3,383.8c0,0.2,0,0.3,0,0.5c0.1,1-0.1,1.2-1,1.3c0,0.1,0,0.2,0,0.3c0.5-0.1,1.4-0.2,2.3-0.3
		c0.8-0.1,1.7-0.2,2.2-0.2c0-0.1,0-0.2,0-0.3c-0.9,0.1-1.1,0-1.2-1c-0.1-0.2-0.1-0.3-0.1-0.5c3.2-0.7,4.9-2.3,4.9-4.6
		c-0.3-2.2-2.2-3.2-5.5-3.1c-0.1-0.2-0.1-0.3-0.1-0.5c-0.1-1,0-1.2,0.9-1.3c0-0.1,0-0.2,0-0.3c-0.5,0.1-1.3,0.2-2.1,0.3
		c-0.9,0.1-1.7,0.2-2.2,0.2c0,0.1,0,0.2,0,0.3c0.9,0,1.1,0.1,1.2,1.1c0,0.2,0,0.3,0,0.5c-3.2,0.5-5,2.1-4.8,4.2
		C641,382.7,642.9,383.9,646.3,383.8z M650.9,379.4c0.3,2.2-0.4,3.4-2.4,3.9c-0.3-2.3-0.5-4.7-0.8-7.1
		C649.6,376.3,650.6,377.2,650.9,379.4z M645.5,376.4c0.2,2.4,0.5,4.8,0.7,7.2c-2-0.2-3-1.2-3.2-3.5
		C642.8,378,643.6,376.9,645.5,376.4z"/>
	<path class="st0" d="M654.4,375.6c0.3,2.2,0.6,4.4,0.9,6.6c0.1,1,0,1.1-0.9,1.3c0,0.1,0,0.2,0,0.3c1.5-0.3,3.7-0.6,4.6-0.7
		c1-0.1,2.3-0.3,3.3-0.4c-0.3-0.8-0.4-1.6-0.4-2c0-0.4-0.1-0.8-0.1-1.1c-0.1,0-0.2,0-0.3,0c-0.1,2.2-0.8,3-2.1,3.2
		c-0.2,0-0.5,0.1-0.7,0.1c-0.8,0.1-1,0-1.1-0.8c-0.2-1.2-0.3-2.3-0.5-3.4c0.2-0.1,0.3-0.1,0.5-0.1c1.2-0.2,1.7,0.6,2,1.5
		c0.1,0,0.2,0,0.3,0c-0.3-1-0.3-1.5-0.4-1.9c0-0.2-0.1-0.4-0.1-0.6c0-0.3-0.1-0.7-0.1-1.3c-0.1,0-0.2,0-0.3,0c0,0.7-0.3,1.8-1.4,2
		c-0.1,0.1-0.3,0.1-0.4,0.1c-0.2-1.1-0.3-2.2-0.5-3.3c-0.1-0.8,0-1,0.8-1.1c0.2,0,0.4-0.1,0.6-0.1c1.2-0.2,2,0.3,2.6,2.2
		c0.1,0,0.2,0,0.3,0c-0.1-0.2-0.1-0.5-0.2-0.9c-0.1-0.4-0.1-1.2-0.2-2c-0.9,0.2-2.1,0.4-2.9,0.5c-0.9,0.2-3,0.4-4.5,0.6
		c0,0.1,0,0.2,0,0.3C654.1,374.5,654.3,374.6,654.4,375.6z"/>
	<path class="st0" d="M668.5,381.8c1.2-0.2,1.8-0.7,2.4-1.3c0.1-0.1,0.2-0.2,0.3-0.2c0.2-0.1,0.3,0.2,0.5,0.7
		c0.1-0.1,0.2-0.1,0.3-0.1c-0.2-0.7-0.4-1.6-0.7-3.3c-0.1,0.1-0.2,0.1-0.3,0.1c0.1,1.3,0,2-0.6,2.7c-0.3,0.6-1,0.9-1.6,1
		c-2,0.4-3.2-1.6-3.6-4c-0.4-2.3,0-4.7,2-5c0.7-0.2,1.4,0,1.9,0.3c0.8,0.4,1.1,1,1.5,2.2c0.1-0.1,0.2-0.1,0.3-0.1
		c-0.4-1.6-0.5-2.5-0.6-3.2c-0.1,0.1-0.2,0.1-0.3,0.1c0.1,0.6,0,0.9-0.2,0.9c-0.1,0-0.2,0-0.3-0.1c-0.7-0.3-1.5-0.6-2.7-0.5
		c-2.9,0.5-4.6,2.8-4.1,5.8C663.2,380.9,665.5,382.3,668.5,381.8z"/>
	<path class="st0" d="M672.8,372.6c0.4,2.1,0.9,4.3,1.3,6.5c0.2,0.9,0.1,1.1-0.8,1.3c0.1,0.1,0.1,0.2,0.1,0.3
		c0.5-0.1,1.3-0.3,2.2-0.5c0.7-0.2,1.6-0.3,2.1-0.4c-0.1-0.1-0.1-0.2-0.1-0.3c-0.9,0.2-1.1,0.1-1.3-0.9c-0.4-2.1-0.9-4.3-1.3-6.5
		c-0.2-0.9-0.1-1.1,0.8-1.3c0-0.1,0-0.2,0-0.3c-0.5,0.2-1.3,0.3-2.1,0.5c-0.9,0.2-1.7,0.3-2.2,0.4c0.1,0.1,0.1,0.2,0.1,0.3
		C672.4,371.5,672.6,371.6,672.8,372.6z"/>
	<path class="st0" d="M683.7,378.8c2.9-0.7,4.4-3.2,3.7-6.1c-0.7-3-3.1-4.3-5.9-3.6c-2.9,0.7-4.4,3.1-3.8,6
		C678.4,378.1,680.7,379.5,683.7,378.8z M681.5,369.4c1.4-0.4,3,1.1,3.7,3.9c0.6,2.7,0.1,4.8-1.5,5.2c-1.5,0.3-3.1-1.2-3.7-4
		C679.4,371.8,679.9,369.7,681.5,369.4z"/>
	<path class="st0" d="M688.4,368.9c0.6,2.2,1.1,4.3,1.7,6.5c0.2,1,0.1,1.1-0.8,1.4c0.1,0.1,0.1,0.2,0.1,0.3c0.5-0.1,1.3-0.4,2.2-0.6
		c0.8-0.2,1.6-0.4,2.1-0.5c-0.1-0.1-0.1-0.2-0.1-0.3c-0.9,0.2-1.1,0.1-1.3-0.8c-0.2-1-0.5-2.1-0.8-3.1c1.2-0.3,2.4-0.7,3.6-1
		c0.3,1,0.6,2.1,0.9,3.1c0.3,0.9,0.2,1.1-0.7,1.4c0.1,0.1,0.1,0.2,0.1,0.3c0.5-0.1,1.4-0.4,2.2-0.6c0.8-0.3,1.6-0.5,2.1-0.6
		c0-0.1-0.1-0.2-0.1-0.3c-0.9,0.2-1.1,0.1-1.4-0.8c-0.6-2.1-1.2-4.3-1.8-6.4c-0.3-0.9-0.1-1.1,0.7-1.4c0-0.1,0-0.2-0.3-0.5
		c-0.4,0.1-1.2,0.4-2,0.6c-0.8,0.3-1.6,0.5-2.1,0.6c0.1,0.1,0.1,0.2,0.1,0.3c0.8-0.2,1-0.1,1.3,0.8c0.2,1.1,0.5,2.1,0.8,3.1
		c-1.2,0.4-2.4,0.7-3.6,1c-0.3-1.1-0.5-2.1-0.8-3.1s-0.2-1.1,0.7-1.4c-0.1-0.1-0.1-0.2-0.1-0.3c-0.4,0.2-1.2,0.4-2,0.6
		c-0.8,0.2-1.6,0.4-2.1,0.5c0.1,0.1,0.1,0.2,0.1,0.3C688,367.9,688.2,368,688.4,368.9z"/>
	<path class="st0" d="M700.9,373.9c0.5-0.2,1.1-0.3,1.7-0.5c0-0.1-0.1-0.2-0.1-0.3c-0.8,0.2-1.3,0.2-1.5-0.5c-0.1-0.3-0.1-0.8,0-1.5
		c0-0.3,0.1-0.7,0.1-1c1-0.3,2-0.6,3-0.9c0.5,0.6,1,1.2,1.5,1.8c0.2,0.3,0.4,0.4,0.4,0.6c0.1,0.4-0.1,0.6-0.8,0.8
		c0,0.1,0.1,0.2,0.1,0.3c0.5-0.2,1.2-0.4,2.1-0.7c0.8-0.2,1.5-0.4,2.1-0.6c0-0.1-0.1-0.2-0.1-0.3c-0.2,0.1-0.6,0-1.1-0.5
		c-2-2.4-3.9-4.7-6-7.2c-0.2,0.1-0.3,0.2-0.5,0.2s-0.4,0.1-0.5,0.1c-0.2,2.9-0.5,5.7-0.8,8.5c-0.1,1.1-0.4,1.5-0.8,1.7
		c0,0.1,0.1,0.2,0.1,0.3C700.1,374.1,700.5,374,700.9,373.9z M701.6,366c0.8,1,1.6,2,2.4,3.1c-1,0.2-1.9,0.5-2.8,0.8
		C701.4,368.6,701.5,367.3,701.6,366z"/>
	<path class="st0" d="M711.1,369.4c-0.2-0.5-0.7-0.7-1.3-0.5c-0.7,0.2-1.1,0.8-0.9,1.5c0.2,0.7,1.1,1,1.9,0.7c2.7-0.9,1-5.7,0.2-8.8
		c-0.3-0.9-0.1-1.2,0.5-1.4h0.1c0.7-0.2,1-0.1,1.3,0.8c0.7,2.1,1.5,4.2,2.2,6.3c0.4,0.9,0.2,1.1-0.8,1.5c0,0.1,0.1,0.2,0.1,0.3
		c0.6-0.2,1.4-0.5,2.3-0.8c0.8-0.3,1.7-0.6,2.2-0.8c0-0.1-0.1-0.2-0.1-0.3c-0.9,0.3-1.2,0.2-1.5-0.7c-0.8-2.1-1.5-4.2-2.3-6.3
		c-0.3-0.9-0.2-1.1,0.7-1.5c-0.1-0.1-0.1-0.1-0.1-0.2c-0.4,0.2-1.3,0.6-2,0.8c-0.7,0.2-1.2,0.4-1.9,0.6c-0.4,0.1-0.8,0.3-1.2,0.4
		c-0.4,0.1-1,0.3-1.4,0.4c0,0.1,0.1,0.2,0.1,0.3c0.9-0.3,1.2-0.2,1.4,0.4c0,0.1,0.1,0.2,0.1,0.3c1,3.6,2.2,7.8,0.1,8.5
		c-0.2,0-0.3,0-0.4,0C711,370.6,711.3,370,711.1,369.4z"/>
	<path class="st0" d="M717.9,359.8c0.7,2,1.5,4.1,2.3,6.2c0.4,1,0.3,1.1-0.6,1.5c0,0.1,0.1,0.2,0.1,0.3c0.4-0.2,1.2-0.5,2.1-0.8
		c0.8-0.2,1.6-0.5,2.1-0.7c0-0.1-0.1-0.2-0.1-0.3c-0.8,0.3-1.1,0.2-1.4-0.7c-0.8-2-1.6-4.1-2.4-6.2c-0.3-1-0.2-1.1,0.6-1.5
		c0-0.1-0.1-0.2-0.1-0.3c-0.5,0.2-1.3,0.5-2,0.8c-0.9,0.3-1.6,0.6-2.1,0.7c0,0.1,0.1,0.2,0.1,0.3
		C717.4,358.8,717.6,358.9,717.9,359.8z"/>
	<path class="st0" d="M723.2,359.5c-0.5-1.5-0.3-3,1.2-3.6c1-0.3,1.7,0,2.2,1.2c0.3,1,0.4,1.9-0.4,2.7c-0.2,0-0.4,0-0.6,0.1
		c-0.2,0.1-0.2,0.2-0.2,0.3c0.1,0.2,0.3,0.2,0.4,0.1c0.2-0.1,0.4-0.2,0.5-0.4c1.3-0.4,2.2,0.4,2.7,1.5c0.6,1.4,0,2.6-1.5,3.2
		c-0.8,0.4-1.5,0.4-1.9,0.3c0.6-0.4,0.8-1,0.6-1.5c-0.3-0.7-0.9-0.9-1.5-0.6s-0.9,0.9-0.7,1.5c0.2,0.5,0.7,0.8,1.2,0.9
		c0.8,0.1,1.8,0,2.7-0.4c2.2-0.9,3.9-2.7,3.2-4.3c-0.7-1.5-2.9-1.5-4.6-0.8c1.2-0.8,2.7-2.3,2.1-3.7c-0.5-1.1-2-1.3-3.8-0.7
		c-1.2,0.4-1.5,0.9-1.9,1.5c-0.1,0.2-0.2,0.3-0.3,0.3c-0.2,0.1-0.4-0.1-0.6-0.5c-0.1,0-0.2,0.1-0.3,0.1c0.3,0.6,0.6,1.3,1.2,2.9
		C723,359.6,723.1,359.5,723.2,359.5z"/>
	<path class="st0" d="M730.6,354.4c0.8,1.9,1.6,3.7,2.4,5.6c0.5,1.2,0.5,1.6-0.3,2.1c0,0,0.1,0.1,0.1,0.2c0.3-0.1,0.8-0.3,1.2-0.5
		c0.5-0.2,1.1-0.5,1.5-0.6c0,0-0.1-0.1-0.1-0.2c-1.3,0.4-1.5,0.2-2.1-1.2c-0.8-2-1.7-3.9-2.5-5.9c2.3,2.2,4.6,4.3,7,6.4
		c0.1,0,0.1-0.1,0.2-0.1c-0.1-3-0.2-6.1-0.3-9.1c0.9,2.2,1.9,4.3,2.9,6.4c0.4,0.8,0.3,1-0.6,1.5c0,0,0.1,0.1,0.1,0.2
		c0.5-0.2,1.3-0.6,2.1-1c0.8-0.3,1.6-0.7,2.1-0.9c0,0-0.1-0.1-0.1-0.2c-0.9,0.3-1.1,0.3-1.5-0.6c-0.9-2-1.9-4-2.8-6
		c-0.4-0.9-0.3-1.1,0.5-1.5c0,0,0-0.1-0.3-0.3c-0.5,0.3-1.3,0.7-2,1c-0.3,0.1-0.6,0.3-0.9,0.4c0.1,2.3,0.2,4.7,0.3,7
		c-1.8-1.6-3.6-3.2-5.3-4.8c-0.5,0.2-1.2,0.6-2,0.9c-0.4,0.1-0.8,0.3-1.1,0.4c0,0,0.1,0.1,0.1,0.2
		C730,353.4,730.2,353.5,730.6,354.4z"/>
	<path class="st0" d="M746.7,356.5c0.7-0.4,1-0.9,0.7-1.5c-0.3-0.6-0.9-0.7-1.6-0.4c-0.7,0.4-1,0.9-0.7,1.5
		C745.4,356.7,746,356.8,746.7,356.5z"/>
	<path class="st0" d="M680.2,449.6c0.1,0.2,0.4,0.3,0.6,0.3s0.3-0.1,0.4-0.1c0.2-0.1,0.3-0.3,0.3-0.5c0,0,0,0,0,0v-0.1
		c0-0.1,0-0.1,0-0.1l0.4-16.9h0l16.6,3.5h0.1h0.1h0.1c0,0,0,0,0.1,0h0.1c0,0,0,0,0.1,0c0,0,0,0,0.1-0.1v-0.1v-0.1c0,0,0.1,0,0.1,0
		c0.1-0.1,0.1-0.2,0.2-0.3c0,0,0,0,0-0.1v0c0-0.1,0-0.2,0-0.2c0-0.1,0-0.1,0.1-0.4l-2.8-16h0.1l17,0.2h0.1c0,0,0,0,0.1-0.1
		c0,0,0,0,0-0.1c0,0,0,0,0-0.1v-0.1h0.1c0.1,0,0.1-0.1,0.1-0.1c0-0.1,0-0.1,0-0.1c0-0.1,0-0.1,0-0.1c0-0.1,0-0.1,0-0.1
		c0-0.1,0-0.1,0-0.2c0,0,0,0,0,0s0,0,0-0.1c0,0,0,0,0,0c0-0.1,0-0.2,0-0.5l-5.9-15.6h0.1l16.7-3c0,0,0,0,0.1,0c0,0,0,0,0.1,0v-0.1
		c0.1-0.3,0.1-0.5,0.2-0.6c0,0,0,0,0,0v-0.1c0,0,0,0,0.2-1c0-0.1,0-0.1,0-0.1c-0.1-0.2-0.2-0.2-0.3-0.3l-0.3-0.1l-6-9.8
		c16.9-5.5,33.4-12.3,49.2-20.4c0.2-0.1,0.3-0.2,0.3-0.4c0.1-0.2,0-0.4,0-0.5l-8.4-16.4l44.3-22.7c0.2-0.1,0.3-0.3,0.4-0.5
		c-0.2-0.7-0.3-0.9-0.5-1l-21.2-15.8l-0.5-26.5c0-0.2-0.1-0.5-0.3-0.6c-0.2-0.1-0.5-0.1-0.7,0l-73.1,37.5c0,0-0.1,0-0.1,0.1
		c0,0-0.1,0-0.1,0.1c0,0,0,0.1-0.1,0.1c-0.1,0.2-0.1,0.5,0,0.7l7.6,14.8c-18.8,7.1-38.5,12.2-58.3,15.1v-8.7
		c0.2-2.4-1.7-4.4-4.1-4.7c0,0,0,0-0.1,0c2.2-5.1,4-10.6,5.4-16.5l0.1-0.6c0.9-3.9,1.6-7.8,2.2-11.6c0,0,0,0,0-0.1
		c2.7,3.9,6.7,6.9,9,8.5c0.8,0.5,1.3,0.8,1.3,0.8l1.3,0.8l-1.9-15.6c2.8,4.7,8.4,7.8,11.9,9.5c1.7,0.8,3,1.2,3.2,1.3l1.4,0.4
		l-5.7-17c2.9,3.9,8.8,6.5,17.4,7.7v0.1h0.2l0.1,0c0.1,0,0.2,0,0.3,0h0.1c0.5,0.1,0.8,0.1,0.8,0.1l1.5,0.1l-8.8-13.7
		c0.2,0.2,0.4,0.4,0.5,0.5c4.4,3.8,11.5,4.4,16.1,4.4c1.4,0,2.6-0.1,3.4-0.1c0.1,0,0.2,0,0.3,0l0,0l0,0c0.4,0,0.7-0.1,0.7-0.1
		l1.4-0.2l-8.7-9.2l-0.1-0.1c2.9,1.3,6.2,1.8,9.5,1.8c3.4,0,6.6-0.4,9-1c1.8-0.4,2.9-0.7,2.9-0.7l1.4-0.4l-9.7-7.8
		c1.4,0.3,2.9,0.5,4.3,0.5c5.6,0,11.5-2,14.5-3.2l0.2-0.1c0.9-0.4,1.4-0.6,1.4-0.6l1.3-0.6l-10.4-6.2l0,0c0.1,0,0.1,0,0.2,0
		c8.7,0,18.4-5.8,20.8-7.4l0.1,0.1c0-0.1,0.1-0.2,0.2-0.2l0,0l1.2-0.8l-1.3-0.5l-9.1-3.9c8.1-1.1,16.4-7,20-9.6
		c0.9-0.8,1.4-1.2,1.4-1.2l1.1-0.9l-14.2-3.7c11.1-2.9,21.4-14.6,22-15l0.9-1.1l-11.2-1.2c7-2.4,13.5-8.3,17.9-13.3
		c3.7-4.1,6-7.5,6.1-7.6l0.8-1.2l-19.5,0.9c9-4.3,16.2-14.6,20-21l0.1-0.2c1.6-2.6,2.5-4.3,2.5-4.4l0.7-1.4l-11.7,2.3
		c5.7-6.3,9.3-14.8,11.1-19.7c0.9-2.4,1.3-3.9,1.3-4l0.4-1.3l-15.9,4.6c6.9-6.2,11-16.8,13.3-25v-0.1c1.2-4.5,1.7-7.6,1.7-7.7
		l0.2-1.4l-23.1,11c11.2-11.6,13-35.7,13.2-38.7l0.1-1.9l-1.3,0.9l-14.9,10.6c5.5-10.3,6.5-24.5,6.5-32.5c0-4.7-0.3-8-0.3-8
		l-0.1-1.6l-27.3,26.4c10.8-12.7,8.3-38.3,6.7-48.8c-0.3-2.4-0.6-3.7-0.6-3.8l-0.3-1.7l-16.4,22.7c0-0.3,0.1-0.5,0.1-0.8
		c2.3-15.6-3.1-33.6-4.9-39.1c-0.2-0.7-0.4-1.1-0.4-1.1l-0.6-1.6L664.9,132l-0.4,0.7l-0.2,0.4l-0.6,1l-2.4,4.4l0,0L650.7,158
		l0.9,0.5l-0.4,0.6c18.6,11.9,29.8,32.3,29.8,54.4c0,11.5-3.1,22.9-9,32.8l-0.1,0.1c-0.3,0.5-0.6,1-1,1.6c-0.5,0.8-1,1.6-1.6,2.4
		c0,0,0,0.1-0.1,0.1l-0.1-0.1c-0.6,0.9-1.2,1.7-1.9,2.6l0.1,0c-0.2,0.2-0.5,0.5-0.7,0.8c-0.7,0.8-1.4,1.6-2.1,2.4
		c-0.3,0.3-0.5,0.6-0.8,0.9l-0.2,0.2c-0.5,0.5-1,1-1.5,1.5c-1,1-2,2-3.1,2.9c0,0-0.1,0.1-0.1,0.1c-2-7.1-4.6-13.7-7.9-19.5l0,0
		c-1-2.3-2.2-4.5-3.6-6.6c0,0,0-0.1-0.1-0.1c8.5-5.1,16.9-10.1,17-10.2c0.4-0.2,0.5-0.6,0-1c-0.1-0.4-0.5-0.5-0.9-0.4l-19.8,6.8
		c-2.7-2.9-5.7-5.2-9.1-7h-0.1c-5.6-3.7-11.6-5.5-17.7-5.5c-6.2,0-12.1,1.9-17.7,5.5c0,0,0,0-0.1,0c0,0,0,0,0,0c0,0,0,0,0,0
		c-3.4,1.9-6.5,4.3-9.2,7.1c0,0-0.1,0.1-0.1,0.1l-0.4-0.1l-19.9-6.9c-0.3-0.1-0.7,0-0.9,0.4c-0.2,0.4,0,0.8,0.3,1
		c0.1,0,8.3,5,16.8,10.1c0,0,0.1,0.1,0.2,0.1c-1.3,2-2.5,4.1-3.4,6.4l-0.1,0.1v0.2c-0.1,0.2-0.2,0.5-0.3,0.7
		c-3.2,5.6-5.7,12-7.6,18.9c-0.1-0.1-0.2-0.2-0.3-0.3c-1.1-0.9-2.1-1.9-3.1-2.9c-0.4-0.5-0.9-0.9-1.3-1.4l-0.1-0.1
		c0-0.1,0-0.1,0-0.1l-0.2-0.2c-0.3-0.3-0.5-0.6-0.8-0.9c-0.7-0.8-1.4-1.6-2.1-2.4c-0.3-0.2-0.5-0.5-0.7-0.8c-0.7-0.8-1.4-1.7-2-2.6
		c-0.5-0.7-1.1-1.6-1.6-2.4c-0.4-0.6-0.7-1.1-1-1.6l-0.1-0.1c-5.9-9.9-9-21.2-9-32.8c0-22.2,11.1-42.5,29.8-54.4l-0.3-0.6l0.8-0.4
		l-12.6-23.1l0-0.1l-0.1-0.2l-1.4-2.6l0,0L505.1,15.7l-1.1-2l-0.6,1.6c0,0-0.1,0.4-0.4,1.1c-1.8,5.4-7.3,23.5-5.5,39l-13.7-18.9
		l-2.1-3l-0.3,1.7c0,0.1-0.2,1.5-0.6,3.8c-1.6,10.4-4,35.5,6.3,48.4l-26.8-26l-0.1,1.6c0,0-0.3,3.2-0.3,8c0.1,8,1,22.2,6.4,32.5
		L451.7,93l-1.4-1l0.1,1.9c0.2,3,1.9,26.6,12.7,38.3l-22.7-10.9l0.2,1.4c0,0.1,0.5,3.2,1.7,7.7v0.1c2.3,8.5,6.6,19.4,14,25.5
		l-16.5-4.7l0.4,1.3c0,0.1,0.4,1.6,1.3,4c1.7,4.7,5.3,13.2,10.9,19.5l-11.6-2.3l0.7,1.4c0,0.1,0.8,1.8,2.4,4.4l0.1,0.2
		c3.8,6.4,11.2,16.8,20.2,21.1l-19.5-0.9l0.8,1.2c0.1,0.1,2.4,3.5,6.1,7.6c4.4,4.9,10.8,10.7,17.7,13.2l-10.9,1.2l0.9,1.1
		c0.5,0.5,10.6,12.1,21.8,15.1l-12,3.1l-2,0.5l1.1,0.9c0,0,0.5,0.5,1.4,1.2c3.6,2.8,12.1,8.8,20.3,9.8l-9.2,3.9l-1.4,0.6l1.2,0.7
		c0,0,0,0,0,0.1l0,0l0.2,0.1c2.1,1.3,11.8,7.2,20.7,7.2c0.1,0,0.2,0,0.3,0l0,0h-0.1l-10.4,6.1l1.3,0.6c0,0,0.5,0.2,1.4,0.6l0.2,0.1
		c3,1.2,8.9,3.2,14.5,3.2c1.5,0,3-0.2,4.4-0.5l-7.8,6.2l-2.1,1.7l1.4,0.4c0.1,0,1.1,0.3,2.9,0.7c2.4,0.5,5.7,1,9.1,1
		c3.3,0,6.7-0.5,9.6-1.8l0,0l-7.4,8l-1.3,1.4l1.4,0.2c0,0,0.4,0,1,0.1c0.8,0.1,2,0.1,3.4,0.1c4.5,0,11.4-0.7,15.8-4.2l-7.2,11.3
		l-1,1.6l1.4-0.2c0,0,0.3,0,0.8-0.1h0.1c0.1,0,0.2,0,0.2,0c0,0,0,0,0.1,0l0.2,0.1h0.2v-0.2c8.7-1.2,14.5-3.9,17.4-7.8l-4.6,13.6
		l-1.2,3.6l1.3-0.4c0.2-0.1,1.5-0.5,3.2-1.3c3.6-1.7,9.3-4.9,12-9.7l-1.9,15.8l1.3-0.8c0,0,0.5-0.3,1.3-0.8c2.4-1.6,6.5-4.7,9.2-8.7
		c0,0,0,0.1,0,0.1c0.6,3.9,1.3,7.8,2.2,11.7c1.4,6.2,3.3,11.9,5.6,17.1c0,0.1,0.1,0.1,0.1,0.2c-0.1,0-0.2,0-0.3,0
		c-1.2,0.1-2.3,0.7-3.1,1.6c-0.8,0.8-1.3,2-1.3,3.2v8.9c-19.8-2.7-39.3-7.5-58.1-14.3l7.2-14c0.1-0.1,0.1-0.2,0.1-0.3
		c0-0.1,0-0.2,0-0.3c-0.1-0.2-0.2-0.3-0.3-0.4l-73.1-37.5c-0.2-0.1-0.5-0.1-0.7,0c-0.2,0.1-0.3,0.3-0.3,0.6l-0.5,26.5l-21.2,15.8
		c-0.2,0.1-0.3,0.4-0.3,0.6s0.2,0.4,0.4,0.6l41,21l-8.2,16.1c-0.1,0.2-0.1,0.3,0,0.5s0.2,0.3,0.3,0.4c16.6,8.5,34,15.6,51.9,21.3
		l-0.1,0.1l-6.4,10.3c0,0,0,0,0,0.1c0,0,0,0,0,0.1v0.1c0,0,0,0,0,0.1c0,0,0,0,0,0.1c0,0,0,0.1,0,0.2c0,0,0,0,0,0.1
		c0,0,0,0.1,0.1,0.1h0v0c0,0,0,0,0,0c0,0,0.1,0,0.1,0c0,0,0,0,0,0c0,0,0,0,0,0c0.1,0.1,0.1,0.1,0.1,0.1c0,0.1,0.1,0.1,0.1,0.1h0.1
		h0.1c0.1,0,0.2-0.1,0.3-0.1h0.1l0.1-0.1l15.9,2.9h0.2h0.1c0.1,0,0.1,0,0.1,0c0,0,0,0,0,0l-0.1,0.2l-2.8,7.3l-3.2,8.5
		c0,0-0.1,0.1-0.1,0.1c0,0,0,0,0,0c0,0,0,0,0,0.1c0,0.1,0,0.3,0,0.4c0,0,0,0,0,0v0.1c0,0.1,0,0.1,0,0.1c0,0.1,0,0.1,0,0.1
		c0.1,0.1,0.1,0.1,0.1,0.1c0.1,0,0.1,0.1,0.2,0.1h0.1h0.1h0.1h0.1c0,0,0,0,0,0c0.1,0,0.3,0,0.4-0.1l0.4-0.3l16.2-0.2h0.2
		c0.1,0,0.2,0,0.3-0.1v0.2l0,0l-0.1,0.1c-0.1,0-0.1,0-0.1,0c-0.1,0-0.1,0.1-0.1,0.1v0.1v0.1v0.2l-2.8,16l0,0
		c-0.3,0.3-0.3,0.6-0.1,0.9c0,0,0,0.1,0,0.1l0.1,0.1c0,0,0,0,0,0c0,0,0,0,0,0c0,0.1,0.1,0.1,0.1,0.1c0,0.1,0.1,0.1,0.1,0.1h0.1h0.1
		h0.1c0.1,0,0.1,0,0.1,0h0.1l0.1-0.1c0,0,0.1,0,0.1,0c0,0,0.1,0,0.1,0c0.1-0.1,0.1-0.1,0.1-0.1c0.1,0,0.1-0.1,0.2-0.2l0.1-0.1
		l16.2-3.4h0v0v0.1v0.1v0.3l0.4,16.5l-0.1,0.1c-0.2,0.3-0.1,0.8,0.2,1c0.1,0.1,0.3,0.1,0.4,0.1c0.2,0,0.5-0.2,0.6-0.3l0.2-0.3
		l14.8-6.2l0.2-0.1c0,0,0.1,0,0.1,0c0,0,0,0,0,0l0.1,0.3l3.5,16.2c0,0.1,0,0.3,0.1,0.4c0,0.1,0,0.1,0,0.1c0.1,0,0.1,0.1,0.1,0.1
		c0,0.1,0,0.1,0,0.1c0.1,0,0.1,0.1,0.1,0.1c0.1,0,0.1,0.1,0.2,0.1v0c0,0.1,0.1,0.1,0.1,0.2c0.1,0.1,0.2,0.1,0.3,0.2c0,0,0,0,0.1,0
		c0,0,0,0,0.1,0s0.3,0,0.4-0.1l14.1-9.5l0.1,0l4,9.4l2.3,5.4l0,0c-0.1,0.4,0.2,0.8,0.6,0.9h0.1c0.4,0,0.7-0.2,0.8-0.6l0.1-0.6
		l11-10.9l0.1-0.1c0,0.1,0.1,0.2,0.1,0.2l0.4,0.5l9.3,13.7c0,0,0,0,0.1,0c0,0,0,0,0.1,0h0.1l0,0c0,0,0.1,0,0.1,0
		c0.1,0,0.2,0,0.3-0.1c0.1,0,0.2,0.1,0.3,0.1c0.1,0,0.2,0,0.3-0.1h0.1c0.1-0.1,0.1-0.1,0.2-0.2c0.1,0,0.1-0.1,0.1-0.1v-0.1
		c0,0,0-0.1,0-0.2c0,0,0,0,0,0v0c0-0.2,0-0.3,0.6-0.5l-0.3-0.4l8.7-12.7v-0.1l0,0l0.1,0.1l0.3,0.3l11.4,11.3
		c0.1,0.3,0.3,0.5,0.7,0.5c0,0,0.1,0,0.2,0c0.1,0,0.1-0.1,0.2-0.1h0.1l0.1-0.1c0,0,0-0.1,0-0.1c0.1-0.1,0.2-0.3,0.2-0.4l6.6-15.4
		l0.1-0.2c0,0,0.1-0.1,0.1-0.1c0,0,0,0,0,0l0.2,0.1l13.2,8.9l0.2,0.4c0.1,0.3,0.4,0.5,0.7,0.5c0.1,0,0.2,0,0.3-0.1
		c0.1,0,0.1-0.1,0.1-0.1c0,0,0.1,0,0.1,0c0.1,0,0.1,0,0.1,0c0.1,0,0.1,0,0.1,0c0.1-0.1,0.1-0.1,0.1-0.1c0-0.1,0-0.1,0-0.1v-0.1v-0.1
		l2-9.2l0.2-1.1l1.3-6.2l0-0.1l0.1,0L680.2,449.6L680.2,449.6z M681.3,415.6c-0.3-0.2-0.7-0.2-1,0.1c-0.3,0.3-0.3,0.7-0.1,1L681,429
		l-23.3-29c4.4-0.6,8.9-1.2,13.3-2h0.2l0.7-0.1l0.1,0l21.7,18.7l0.4,0.4l-0.5-0.1L681.3,415.6z M705.4,400.8l0.5,0.3l-0.6,0
		l-12.3,1.1l-0.1-0.1c-0.3-0.2-0.8-0.1-1,0.2c-0.2,0.3-0.1,0.7,0.1,0.9l3.3,12.2l-21.1-17.8c6-1.1,11.9-2.3,17.7-3.7l0.2-0.1
		l0.7-0.1L705.4,400.8z M696,392.8c2.1-0.5,4.1-1.1,6.2-1.6c0.2,0,0.4-0.1,0.6-0.2l3.8,7.7L696,392.8z M682.5,430.7l-0.9-12.4l0-0.2
		l14.9,15.5L682.5,430.7z M697.5,432.4l-14.6-15.2l12.2,1.3l0.8,4.5l0.8,4.5L697.5,432.4z M711.2,416.7l-14.3-0.2l-3.2-12l0-0.1
		L711.2,416.7L711.2,416.7z M712.1,415.5L712.1,415.5l-17.5-12.2l12.4-1.1L712.1,415.5z M723.8,397l-1.2,0.2l-14,2.5l-4.4-9.1
		c0.4-0.1,0.8-0.2,1.2-0.3c0.1,0,0.2,0,0.3-0.1c0.6-0.2,1.1-0.3,1.6-0.5l15.3,6.8L723.8,397z M722.5,394.7l-12.9-5.7
		c2.5-0.7,4.9-1.5,7.4-2.2c0.2,0,0.3-0.1,0.4-0.1L722.5,394.7z M781.5,283l0.5,25.7c0,0.2,0.1,0.4,0.3,0.5l20.6,15.4l-43.4,22.3
		l-12.8-25.1v-0.1l-0.1-0.1l-0.1-0.1c0,0-0.1-0.1-0.2-0.1s-0.2-0.1-0.2,0l-34.6-2.5L781.5,283z M710.3,320.2l33.4,2.4
		c-8.6,4.3-17.5,8.1-26.3,11.5L710.3,320.2z M742,323.9c-0.2,0.1-0.3,0.2-0.4,0.2C741.7,324,741.8,324,742,323.9z M656.5,341.3v15.4
		h-0.1c0,1.9-1.5,3.3-3.3,3.3c-1.9,0-3.4-1.5-3.4-3.3V351v-6.4l0,0c0,0,0.1-0.1,0.1-0.2v-3.1c0,0-0.1,0.1-0.1,0.1v-0.2
		c0-1.1,0.5-2.1,1.4-2.7c0.3-0.2,0.7-0.4,1.1-0.5c0.3-0.1,0.6-0.1,0.9-0.1h0.1C655.1,337.9,656.5,339.4,656.5,341.3z M670.8,314.7
		c-2.5-1.8-6.9-5.1-9.3-9.4c0.7-5.2,1-10.2,1-15.1c0-8.3-0.8-16.3-2.6-24c1.4-0.9,2.6-1.8,3.8-2.7c0.3-0.2,0.6-0.5,0.9-0.7l6.3,51.9
		C670.8,314.7,670.8,314.7,670.8,314.7z M684.8,310.2l0.2,0.7c-0.4-0.2-0.9-0.4-1.5-0.7c-4.1-1.9-11.1-5.9-12.5-11.8
		c-0.3-1.3-0.8-3.3-1.2-5.4l0,0l-3.8-31.3c0.1,0,0.1-0.1,0.1-0.1c0.6-0.5,1.2-1.1,1.8-1.6l9.8,28.9l0,0c0,0.1,0.1,0.2,0.1,0.3
		L684.8,310.2z M699.1,302.5c0,0-0.1,0-0.1,0.1c-11.2-1.6-15.5-5.5-16.9-8.4c-0.3-0.5-0.6-1-0.9-1.6c-0.5-1-1.2-2.1-1.9-3.5
		L669.1,259c0.4-0.3,0.7-0.6,1.1-1c2.1,3.1,4.1,6,5.9,8.7L699.1,302.5z M712.6,294.1c-4.1,0.3-14.9,0.3-19.4-5.5
		c-2.2-2.8-6.5-8.9-12.8-18.1l-0.1-0.1l0,0v-0.1c-0.3-0.4-0.6-0.8-0.8-1.2l-8-12.4c0,0,0.1-0.1,0.1-0.1c1.1-1.1,2.2-2.2,3.2-3.4
		L712.6,294.1z M726.5,284.8c-0.3,0.1-0.8,0.2-1.3,0.3c-4.5,0.9-15.4,2.4-20.8-2.8c-5.6-5.4-21.6-22.8-28.6-30.5
		c1.3-1.5,2.6-3.1,3.7-4.7L726.5,284.8z M738.2,273.4C738.2,273.4,738.2,273.4,738.2,273.4c-3.7,1.6-15.4,5.6-21.7,1
		c-7.4-5.4-31.6-25.2-35.7-28.6l3.5-3.9l13,7.6L738.2,273.4z M750.6,259.6c-3.7,2.2-14.2,7.8-22.4,6H728v0l-29.8-17.3l-0.1-0.1
		c-5.1-3.2-10-6.3-13.8-8.6c1.2-2.1,2.4-4.3,3.4-6.6c0-0.1,0.1-0.2,0.1-0.2l51.8,22.1l0,0.1c0.1,0,0.2,0,0.2,0L750.6,259.6z
		 M762.4,243.7c-0.1,0.1-0.2,0.3-0.2,0.4l0,0c-4,3.1-13.5,9.6-21.9,9.4l-52-22.2c0.9-2,1.6-4,2.3-6.1L762.4,243.7z M771.5,224.4
		c-3.2,3.3-13.3,13.1-23,14.1l0,0.1l-57.3-14.9c0.8-2.6,1.4-5.1,1.9-7.6c0,0,0-0.1,0-0.1l65.9,7.1v0c0.1,0,0.1,0,0.2,0L771.5,224.4z
		 M785.3,201.6c-1,1.3-2.8,3.6-5.1,6.2c-5.2,5.8-13.1,12.9-21.3,13.8l-65.5-7.1c0.5-2.7,0.8-5.5,1-8.3c13.2-0.4,54.5-2.1,67.6-3.3
		c0.7-0.1,1.4-0.2,2.2-0.4c0.1,0,0.1,0,0.2,0l0,0.1L785.3,201.6z M789.3,175.9c-0.4,0.8-1,1.8-1.8,3.1l-0.1,0.2
		c-4.3,7.2-13,19.4-23.4,21.8c-0.7,0.1-1.3,0.2-2,0.3c-13.1,1.3-54.1,2.8-67.5,3.4c0.1-1.4,0.1-2.6,0.1-3.8c0-2.1-0.1-4.2-0.3-6.2
		l83.9-16.6L789.3,175.9z M790,153.6c0,0.9-0.1,1.7-0.1,2.6c-1.8,5.1-5.9,14.4-12.1,20.5l-83.5,16.4c0-0.2,0-0.3-0.1-0.5
		c-0.3-3.2-0.9-6.4-1.6-9.6c-0.1-0.5-0.3-1.1-0.4-1.6l81.4-23.2v0.1h0.2l0.2-0.1c0.1,0,0.1-0.1,0.2-0.2L790,153.6z M790.5,124.2
		c-0.3,1.3-0.8,3.5-1.5,6.2v0.1c-2.1,7.4-6.8,20.7-15.6,26.3h0h-0.1l-0.1,0.1L691.8,180c-0.2-0.6-0.3-1.1-0.5-1.7l-1.5-5.9
		L790.5,124.2z M707.9,126c1,3.3,3.6,14.1,0.3,19.1l-23.7,17c-1.3-2.5-2.9-4.8-4.5-7.1c-0.3-0.4-0.5-0.8-0.8-1.1L707.9,126z
		 M678.2,152.7c-1.6-2-3.2-4-5-5.9l-0.1-0.1c-0.1-0.1-0.1-0.1-0.2-0.2l-0.3,0.3l-0.1-0.1l-0.1-0.1c-0.3-0.4-0.7-0.7-1.1-1.1
		l35.7-49.3l0.3-0.4c1.4,3.2,7.7,18.7,1.5,27.3L678.2,152.7z M706.3,148.4c0.6,2.7,2.5,12.6-3,15.9l-14.5,6.9
		c-0.9-2.3-2-4.6-3.1-6.8c-0.2-0.3-0.4-0.6-0.5-0.9L706.3,148.4z M780.9,95.1c-0.5,6.5-3.3,32.2-17,40c-0.4,0.3-0.9,0.5-1.4,0.8l0,0
		l-55.6,26.6c2.8-4.9,1.3-12.6,0.8-14.6c0.7-0.5,1.2-1.1,1.7-1.8L780.9,95.1z M771.2,64.8c0.1,1.4,0.2,3.6,0.2,6.3
		c0,8.6-1.1,24.5-7.9,34.5l-52.9,37.8c1.9-6.5-0.8-16.2-1.5-18.3c0.3-0.3,0.6-0.7,0.8-1l17.5-16.9l0,0c0.1-0.1,0.2-0.2,0.2-0.2
		L771.2,64.8z M734.3,58.6v-0.2c0,0,0-0.1,0-0.1l0.4,0.3l15.5-21.4c0.1,0.6,0.2,1.2,0.3,2c1.6,10.4,4.1,35.8-6.6,48
		c-3.3,3.8-9,9.9-17.6,18.9l0,0L712,120c3.2-9.8-2.5-23-3.5-25.1c0.8-0.9,1.3-2,1.7-3.2l23.9-33L734.3,58.6z M703.8,62.9l24.7-45.8
		c1.7,5.2,7.6,25,4.9,40.6l-22.5,31.4l0,0c1.4-10-6-24.1-7.1-26.1L703.8,62.9z M666.2,132.7l-0.1-0.1l0.1-0.2l36.7-67.9
		c2.2,4.3,9.8,20.4,5.2,28.4l-0.9,1.2l-36.4,50.2c-1.6-1.5-3.2-2.9-4.7-4.2l-0.1-0.1l-2.6-2L666.2,132.7z M659.9,263.1
		c1.1-1,2.2-2,3.2-3c0.5-0.5,1-1,1.5-1.5c0.1-0.1,0.1-0.1,0.1-0.1l0.2-0.2c0.3-0.3,0.5-0.6,0.8-0.9c0.7-0.8,1.4-1.7,2.1-2.5
		c0.2-0.3,0.5-0.6,0.7-0.9c0.7-0.9,1.4-1.8,2-2.7c0.6-0.8,1.2-1.6,1.7-2.5c0.4-0.6,0.7-1.1,1-1.6l0.1-0.1c6-10.2,9.2-21.8,9.2-33.7
		c0-22.4-11.2-43.1-30.1-55.3l10.1-18.5l2.4,1.9c1.8,1.5,3.7,3.2,5.5,5l1.1,1.1l0.1,0.1l0.1,0.1l0.1,0.2l0.2-0.2l0,0l0.1,0.1
		c1.9,2,3.7,4.2,5.4,6.4c0.4,0.5,0.8,1.1,1.2,1.6c1.8,2.4,3.4,5,4.9,7.6c0.3,0.5,0.6,1.1,0.9,1.6c1.6,3,3,6.2,4.2,9.4
		c0,0.1,0.1,0.2,0.1,0.3l2.3,8.8l0.3,0.7l0.1,0c0.6,2.8,1.1,5.6,1.4,8.4c0,0.4,0.1,0.8,0.1,1.3c0.2,2.3,0.3,4.5,0.3,6.8
		c0,1.3,0,2.6-0.1,4c0,0.2,0,0.3,0,0.5c-0.2,3.2-0.6,6.4-1.2,9.6c-0.1,0.2-0.1,0.5-0.2,0.8c-0.5,2.5-1.1,5.1-1.9,7.6l-0.2,0.6
		c-0.1,0.3-0.2,0.5-0.3,0.8c-0.7,2.3-1.6,4.6-2.6,6.9c-0.1,0.3-0.2,0.5-0.3,0.8c-1.1,2.5-2.3,4.9-3.6,7.1c-1.3,2.1-2.6,4.2-4.1,6.3
		c-1.4,2-2.9,3.9-4.5,5.7l-0.1,0.1l0,0l0,0c-1.4,1.6-3,3.2-4.5,4.7l-0.1,0.1c0,0,0,0,0,0l-0.4,0.3l0,0.1c-0.5,0.5-1.1,1-1.5,1.4
		c-0.8,0.7-1.7,1.4-2.6,2.2c-0.2,0.1-0.3,0.2-0.4,0.3c-0.7,0.6-1.3,1.1-2,1.6c-1,0.8-2.1,1.5-3.2,2.3c0,0,0,0,0-0.1
		c-0.1-0.4-0.2-0.7-0.3-1C659.4,263.3,659.7,263.2,659.9,263.1z M653.6,259.8c0.1-1.2,0.2-2.4,0.2-3.5c-0.1-0.2-0.1-0.4-0.1-0.7
		c0-0.2,0-0.4,0-0.6v-0.1c0-1,0-2,0-3.1c1.5,3.7,2.8,7.5,3.9,11.6c0.2,0.8,0.4,1.7,0.6,2.6c1.8,7.7,2.7,15.8,2.7,24.1
		c0,9-1.1,18.5-3.3,28.2l-0.1,0.6c-1.4,6.3-3.4,12.2-5.7,17.6c-0.6,0.2-1.1,0.5-1.6,0.8c-0.8,0.5-1.4,1.3-1.7,2.2
		c-0.5-1.2-1.5-2.2-2.6-2.7c-0.1,0-0.2-0.1-0.3-0.1c0-0.6,0-1.1,0-1.6c0.3-7.2-0.9-14-3-19.9c0,0,0-0.1,0-0.1
		c5.4-13,10.1-30.9,11.1-55C653.6,260,653.6,259.9,653.6,259.8z M647.5,351.4v5.3c0,0.7-0.2,1.4-0.6,1.9c0,0,0,0,0,0l-0.1,0
		c0,0.1-0.1,0.1-0.1,0.2c-0.2,0.2-0.3,0.4-0.5,0.5c-0.2,0.1-0.3,0.2-0.4,0.3c0,0-0.1,0.1-0.2,0.1c-0.1,0-0.2,0.1-0.3,0.1
		c-0.4,0.2-0.9,0.3-1.4,0.3c-1.3,0-2.4-0.7-3-1.8h0c0,0,0,0,0,0c0,0,0,0,0-0.1v-0.1c0,0,0,0,0-0.1c-0.1-0.3-0.2-0.6-0.2-0.9
		c0-0.1,0-0.1,0-0.2v-0.1v-0.1v-15.4c0-1.9,1.5-3.4,3.4-3.4c0.5,0,1,0.2,1.4,0.5c0-0.1,0-0.1,0-0.2c0.1,0.1,0.3,0.1,0.4,0.2
		c0.9,0.6,1.6,1.6,1.6,2.8v4c0,0.1-0.1,0.1-0.1,0.2c0,0.1-0.1,0.1-0.1,0.2v1.3c0,0-0.1,0.1-0.1,0.1v4.4
		C647.3,351.4,647.4,351.4,647.5,351.4z M634.7,336.4c0,0-0.1,0-0.1,0c0-0.5,0-0.8,0-1.3c0-1.7,0-3.1-0.1-4.6c0.4-0.6,0.7-1.1,1-1.6
		c1.9-3.2,4-7,5.9-11.4c1.7,5.3,2.6,11.3,2.6,17.5c0,0.5,0,0.9,0,1.3c0,0,0-0.1-0.1-0.1c0,0.1,0,0.1,0,0.2c-1.3,0-2.5,0.5-3.4,1.4
		c-0.5,0.5-0.9,1.1-1.2,1.8v0C638.6,337.7,636.8,336.4,634.7,336.4z M602.8,351.1V341c0.2-1.4-0.5-2.8-1.7-3.7c0,0-0.1,0-0.1-0.1
		c0-0.7,0-1.4,0-2c0-0.3,0-0.6,0-0.9c0-0.4,0-0.8,0-1.2c0.2,0.4,0.5,0.8,0.7,1.1c5.9,8.3,11.2,12.7,13.7,14.5l-0.4,0.1
		c0.1,0.1,0.1,0.1,0.2,0.2l0.1,0.1l0.1,0.1c0,0.1,0.1,0.1,0.1,0.1c0,0.1,0.1,0.1,0.1,0.1c0.1,0,0.1,0,0.1,0l0.1-0.3l0,0l0.1,0.1
		c0,0.1,0.1,0.1,0.1,0.1c0,0.1,0.1,0.1,0.1,0.1c0.1,0,0.1,0,0.1,0c0.2,0.2,0.4,0.3,0.4,0.3l0.3,0.2h0.1l0.1-0.1l0.1-0.1
		c0-0.1,0.1-0.1,0.1-0.1c0.1,0,0.1-0.1,0.2-0.1c0-0.1,0.1-0.1,0.2-0.2c0.1,0,0.2-0.1,0.3-0.2c2.4-1.7,8.5-6.6,15.1-16.4
		c0,0.8,0,1.6,0,2.4c0,0.6,0,1,0,1.6c0,0-0.1,0-0.1,0c0,0,0,0,0,0c-0.7,0.3-1.3,0.7-1.8,1.2c-0.8,0.8-1.3,2-1.3,3.3v11.3
		c-0.1,0-0.2,0-0.3,0c-8.7,0.5-17.6,0.5-26.4,0.2c0,0,0,0,0,0C603,352.2,602.9,351.7,602.8,351.1z M601.6,350v3.1v1.6v1.7l-0.2,0.1
		v0.1v0.1v0.1c0,0.1,0,0.1,0,0.2c0,0.1,0,0.1,0,0.2c0,0.1,0,0.1,0,0.2c0,0.2-0.1,0.3-0.1,0.4c0,0.1,0,0.2-0.1,0.3
		c0,0.1-0.1,0.1-0.1,0.2l-0.1,0.1c0,0.1,0,0.1,0,0.1c0,0.1,0,0.1,0,0.1l0.2-0.1l0,0c0,0,0,0,0,0.1v0c-0.2,0-0.2,0-0.3,0.1
		c-0.6,0.8-1.4,1.3-2.4,1.4c-0.1,0-0.2,0-0.3,0H598h-0.1h0c0,0,0,0,0,0c0,0,0,0,0,0c0,0-0.1,0-0.1,0c0,0,0,0-0.1,0h0
		c-0.1,0-0.1,0-0.2,0c-0.2,0-0.4-0.1-0.6-0.2c-0.1,0-0.2-0.1-0.3-0.1h-0.1c0,0,0,0-0.1,0c0,0-0.1,0-0.1-0.1l-0.1-0.1
		c-0.7-0.5-1.2-1.2-1.3-2.1c0-0.1,0-0.1,0-0.2l0,0v-0.1c0-0.1,0-0.2,0-0.3v-15.5c0-1.9,1.5-3.4,3.4-3.4c0.4,0,0.8,0.1,1.2,0.2
		c0,0.1,0,0.1,0,0.2c0.3,0.1,0.5,0.3,0.8,0.5c0.3,0.3,0.6,0.6,0.8,1c0-0.1,0-0.3,0-0.4c0.1,0.1,0.2,0.2,0.2,0.3
		c0.2,0.5,0.4,1,0.4,1.5v3.1c0,0,0,0,0,0v1.9c-0.1-0.6-0.2-1.3-0.2-2v5.2C601.5,349.7,601.6,349.8,601.6,350z M585.7,345.2v-4
		c0-1.3,0.8-2.5,1.9-3c0.4-0.2,0.9-0.3,1.4-0.3c1.9,0,3.3,1.5,3.3,3.4V353v1.6v0.1v1.1c0,0,0.1,0.1,0.1,0.1v0.5h0h0v0.3
		c0,0,0,0,0,0.1c0,0,0.1,0.1,0.1,0.1v0c-0.1,0.3-0.2,0.7-0.3,1.1c-0.5,1.2-1.7,2.1-3.1,2.1c-0.6,0-1.2-0.2-1.7-0.5
		c-0.2-0.1-0.4-0.2-0.5-0.4c-0.3-0.2-0.5-0.5-0.7-0.8c-0.3-0.5-0.5-1.1-0.5-1.7v-4.1v-1v-5v0c0,0,0.1,0.1,0.1,0.1v-0.1L585.7,345.2
		L585.7,345.2C585.8,345.2,585.7,345.2,585.7,345.2z M592.4,356.4L592.4,356.4L592.4,356.4l0.2-0.1c0,0,0,0,0,0.1l0,0L592.4,356.4
		l0.1,0.2L592.4,356.4z M589,336.4c0,0-0.1,0-0.1,0c0,0,0,0,0,0c0-0.5,0-0.9,0-1.4c0-6.3,0.9-12.2,2.6-17.6c0.1-0.4,0.2-0.7,0.4-1.1
		c0.1,0.3,0.3,0.6,0.4,1c2,4.5,4,8.2,5.9,11.4c0.4,0.8,0.9,1.5,1.3,2.2c0,0.4,0,0.9,0,1.3c0,1,0,2,0,3c0,0.4,0,0.9,0,1.3
		c-0.4-0.1-0.9-0.2-1.4-0.2c-2.1,0-3.9,1.3-4.6,3.1C592.8,337.6,591,336.4,589,336.4z M622.7,293.1c-0.3-0.1-0.6-0.2-0.9-0.2
		c0.4-0.1,0.8-0.1,1.2-0.2c12.8-2.2,23.8-11.1,28.5-23.5l0-0.1c0.2-0.2,0.5-0.3,0.7-0.4c0,0.2,0,0.3,0,0.5v0.1
		c-1.6,18.4-5.4,32.8-9.8,43.7c-0.1,0.3-0.3,0.6-0.4,1c-0.1-0.3-0.3-0.7-0.4-1C637.5,303,630.7,295.6,622.7,293.1z M641,316.2
		c-2,4.5-4,8.4-5.9,11.6c0,0.1-0.1,0.1-0.1,0.2c-0.2,0.3-0.4,0.6-0.6,0.8c0-0.3,0-0.7,0-1c-1-15.1-5.2-27.4-10.8-32.7
		c7.3,2.9,13.4,10.2,17,19.9C640.8,315.4,640.9,315.8,641,316.2z M633,330.1c0,0.3,0,0.6,0,0.9c-7.3,11-14.2,15.9-15.8,17.1
		c-1.6-1.1-8.3-5.9-15.4-16.5c-0.2-0.4-0.5-0.7-0.7-1c0.9-20.6,7.6-36.6,15.8-36.8h0.2c0.2,0,0.4,0,0.6,0
		C625.6,294.6,632.1,310.2,633,330.1z M611.3,294.6c-6,5-10.5,17.7-11.6,33.7c-0.1-0.1-0.1-0.2-0.2-0.3c-2.1-3.5-4.4-7.7-6.5-12.7
		c-0.2-0.4-0.3-0.7-0.4-1c4-10.2,10.7-17.6,18.6-19.9c0.2-0.1,0.4-0.1,0.6-0.2C611.6,294.4,611.5,294.5,611.3,294.6z M610.3,293.2
		c-7.7,2.5-14.3,9.5-18.5,19.2c-4.3-10.7-8-24.7-9.7-42.5c4.9,12.1,15.7,20.8,28.4,22.9c0.3,0,0.5,0.1,0.8,0.1
		C611,293,610.7,293.1,610.3,293.2z M631.5,357.1L631.5,357.1v-0.2v-15.5c0-1.2,0.7-2.3,1.6-2.9c0,0,0-0.1,0-0.1
		c0.2-0.1,0.5-0.3,0.8-0.3c0.2-0.1,0.5-0.1,0.7-0.2c0,0,0-0.1,0-0.1h0h0.1c1.8,0,3.3,1.5,3.3,3.4v15.5c0,0.1,0,0.2,0,0.3
		s0,0.2,0,0.3s0,0.1,0,0.2c-0.2,1-0.8,1.7-1.6,2.2c-0.1,0-0.1,0.1-0.2,0.1c-0.3,0.1-0.5,0.2-0.8,0.3c-0.1,0-0.2,0-0.3,0h0
		c-0.1,0-0.2,0-0.3,0h0c-0.2,0-0.3,0-0.5,0c-0.1,0-0.3,0-0.4-0.1c-0.5-0.1-0.9-0.4-1.3-0.7l-0.1-0.1l-0.1-0.1
		c-0.4-0.4-0.6-0.9-0.8-1.4c0-0.1,0-0.2-0.1-0.3C631.5,357.3,631.5,357.2,631.5,357.1z M644,336.4C644,336.4,644,336.4,644,336.4
		C644,336.4,644,336.4,644,336.4C644,336.4,644,336.4,644,336.4C644,336.4,644,336.4,644,336.4z M652.3,267.4c0,0.1,0,0.3,0,0.4
		l-0.3-0.4c0-0.1,0-0.1,0.1-0.2c0.1-0.3,0.2-0.7,0.3-1C652.4,266.6,652.3,267,652.3,267.4z M599.8,254.6c1.7,0,3.1-1.1,3.6-2.6
		c0.6,0.2,1.2,0.4,1.6,0.5c-0.6,3.1-3.3,5.4-6.5,5.4c-3.6,0-6.6-3-6.6-6.6c0-2.9,1.8-5.3,4.3-6.2c0.3,0.6,0.7,1.5,1.4,2.5
		c-1,0.7-1.6,1.8-1.6,3.2C596,252.9,597.7,254.6,599.8,254.6z M600.8,249c-1.4-1.1-2.5-3.2-3.1-4.3c0,0,0,0,0.1,0c0.2,0,0.5,0,0.8,0
		c1,0,1.9,0.2,2.8,0.6c0.6,0.4,1.1,0.7,1.5,1c1.3,1.1,2.2,2.8,2.3,4.6C603.9,250.6,602,250,600.8,249z M604.3,245.2
		c-1.6-1.1-5.8-3.7-12.5-7.9c1.5-0.6,3.2-0.9,5-0.9c7.9,0,14.4,6.4,14.4,14.4c0.1,2.1-0.3,4-1.1,5.8c0,0,0,0.1-0.1,0.1
		c0-0.1-0.1-0.2-0.1-0.3C607.7,250,605.9,246.3,604.3,245.2z M610.8,258.6c1.3-2.3,2-4.9,2-7.7c0-4.9-2.2-9.2-5.6-12.1l8.7,3
		c0.1,0,0.2,0,0.3,0c0.2,0,0.4-0.1,0.5-0.3l8.9-3l1.5-0.5c-0.3,0.2-0.5,0.4-0.8,0.6c-3.6,2.9-5.8,7.3-5.8,12.3
		c0,2.6,0.6,4.9,1.7,7.1c0,0.1-0.1,0.1-0.1,0.2c0,0.1-0.1,0.2-0.1,0.3c-2.4,7.5-4.6,16.1-5.7,20.6c-1.1-4.4-3.2-13.1-5.6-20.4
		C610.7,258.7,610.8,258.6,610.8,258.6z M621.8,250.9c0-7.9,6.4-14.4,14.4-14.4c1.6,0,3.3,0.3,4.7,0.8c-6.8,4.2-11,6.9-12.6,8
		c-1.6,1.1-3.3,4.7-5.5,10.8C622.2,254.5,621.8,252.7,621.8,250.9z M635.6,247.6c0.7-1,1.1-2,1.4-2.5c0,0,0,0,0,0
		c2.5,0.9,4.4,3.4,4.4,6.2c-0.1,3.6-3.1,6.6-6.7,6.6c-3.2,0-5.9-2.3-6.5-5.4c0,0,0,0,0,0c0.5-0.1,1-0.3,1.6-0.5
		c0.5,1.5,1.9,2.6,3.6,2.6c2.1,0,3.8-1.7,3.8-3.8C637.2,249.5,636.6,248.3,635.6,247.6z M632.4,249c-1.2,0.9-3,1.6-4.3,2
		c0.2-3.5,3.1-6.3,6.6-6.3c0.3,0,0.5,0,0.8,0C634.9,245.8,633.8,247.9,632.4,249z M626.4,251.6c0.1-0.2,0.1-0.3,0.2-0.4c0,0,0,0,0,0
		c0,0.1,0,0.2,0,0.3c0.1,4.3,3.7,7.8,8.1,7.8c4.5,0,8.1-3.6,8.1-8.1c0-4.3-3.5-7.9-7.8-8.1h0c2.1-1.4,4.7-2.9,7.9-4.9
		c0,0,0.1,0.1,0.1,0.1c4.5,2.4,7.6,7.2,7.6,12.7c0,7.7-6.4,14.2-14.4,14.2c-5.2,0-9.7-2.7-12.2-6.8c0-0.1-0.1-0.1-0.1-0.2
		C624.8,255.4,625.7,253.3,626.4,251.6z M647.6,239.8C647.6,239.8,647.6,239.8,647.6,239.8C647.6,239.8,647.6,239.8,647.6,239.8
		c-0.9-0.9-2-1.8-3.1-2.5c0,0,0,0-0.1,0l1-0.6l0.1,0l0,0C646.2,237.7,646.9,238.7,647.6,239.8z M642.6,232.7l0.1,0
		c0.1,0.1,0.1,0.2,0.2,0.2l0.7-0.2l0.8-0.3c-0.1-0.1-0.2-0.1-0.3-0.2l0.1,0l12.7-4.4c-3.1,1.9-7,4.2-10.9,6.6
		c-0.2,0.1-0.4,0.2-0.6,0.3l-0.7,0.4l-0.6,0.3l-1.5,0.9c-1.8-0.8-3.9-1.3-6-1.3c-0.1,0-0.2,0-0.3,0c-0.2,0-0.4,0-0.7,0l0.4-0.1
		l5.9-2L642.6,232.7z M591.9,231.6c2.4-2.6,5-4.8,7.8-6.6h0.1h0.1c0.6-0.4,1.2-0.7,1.8-1.1c4.6-2.1,9.7-3.2,14.8-3.2
		c5.9,0,11.7,1.5,16.9,4.2h0.1h0.1c0.6,0.3,1.1,0.7,1.7,1c2.2,1.6,4.3,3.4,6.2,5.5l-0.6,0.2l-24.8,8.5l-0.1,0l-24.3-8.4
		C591.8,231.7,591.8,231.6,591.9,231.6z M575.8,227.8l12.5,4.3l0.3,0.3l0.9,0.3l0.7,0.2l6,2.1l0.1,0c-2.1,0.1-4.1,0.6-5.9,1.5
		c-0.2-0.1-0.3-0.1-0.4-0.2c-0.4-0.2-0.9-0.5-1.4-0.8c0,0,0-0.1,0.1-0.1c-0.4-0.1-0.6-0.2-0.8-0.3l-0.1-0.1l-0.2-0.1
		c0.1-0.1,0.1-0.1,0.2-0.2l-0.1-0.1l-0.5-0.3c-0.2-0.1-0.4-0.2-0.5-0.3c0,0.1-0.1,0.2-0.2,0.3C582.7,231.9,578.8,229.6,575.8,227.8z
		 M587.7,236.8c0.2,0.1,0.4,0.3,0.6,0.4c0.1,0.1,0.2,0.2,0.3,0.2c-1.2,0.8-2.3,1.7-3.3,2.8C586,239,586.9,237.8,587.7,236.8z
		 M589.9,238.2c3.3,2,5.9,3.7,8,4.9c0,0,0,0,0,0c-2.1,0.2-3.9,1-5.2,2.5c-1.4,1.5-2.3,3.5-2.3,5.6c0,4.5,3.6,8.1,8.1,8.1
		c4.2,0,7.6-3.2,8-7.3c0.7,1.6,1.5,3.7,2.3,6.3c0,0.1,0.1,0.2,0.1,0.3c-2.5,4-7.1,6.6-12.1,6.6c-7.9,0-14.4-6.5-14.4-14.4
		C582.5,245.3,585.5,240.7,589.9,238.2z M597,266.7c5.1,0,9.7-2.5,12.6-6.3c3.2,10.1,5.9,22,5.9,22.1c0.1,0.2,0.2,0.4,0.3,0.5
		c0.1,0.1,0.2,0.2,0.4,0.2c0.1,0,0.1,0,0.1,0h0.1c0.3,0,0.6-0.2,0.7-0.6c0.1-0.1,2.9-12.2,6.1-22.4c0-0.1,0.1-0.2,0.1-0.3
		c0.1,0.1,0.1,0.2,0.2,0.3c2.9,3.9,7.5,6.5,12.8,6.5c8.1,0,14.8-6.1,15.7-14c0-0.2,0-0.4,0.1-0.6c0,0.1,0,0.2,0,0.3
		c0.1,0.7,0.1,1.4,0.2,2.2v0.1c0,0.5,0,0.9,0,1.4c0,1.2-0.1,2.3-0.2,3.5c-0.3,2.7-0.9,5.4-1.8,8l-0.2,0.5
		c-5.1,14-18.5,23.5-33.4,23.6h-0.2c-15,0-28.5-9.5-33.6-23.6c-0.5-1.3-0.8-2.6-1.1-3.9c-0.3-3.6-0.4-7.4-0.4-11.3
		C582.4,260.7,589,266.7,597,266.7z M570.3,139.5l10.1,18.4c-18.8,12.2-30,32.9-30,55.3c0,11.9,3.2,23.5,9.2,33.7v0.1
		c0.3,0.5,0.6,1.1,1,1.6c0.6,0.9,1.1,1.7,1.7,2.5c0.6,0.9,1.3,1.8,2,2.7c0.2,0.3,0.5,0.6,0.7,0.9c0.7,0.9,1.4,1.7,2.1,2.5
		c0.3,0.3,0.6,0.7,0.9,1l0.2,0.2c0.5,0.5,1,1,1.5,1.5c1,1,2.1,2.1,3.2,3c0.3,0.2,0.5,0.4,0.7,0.6l-0.3,1.1c-1.1-0.8-2.2-1.6-3.3-2.3
		c-0.6-0.5-1.3-1-2-1.6c-0.1-0.1-0.2-0.2-0.3-0.3c-0.9-0.7-1.8-1.5-2.6-2.2c-0.5-0.5-0.9-0.9-1.4-1.4l0,0l-0.5-0.4
		c-1.6-1.6-3.1-3.1-4.6-4.8v-0.1v-0.1l-0.1-0.1l-0.1-0.1l-0.2-0.3l0,0.1c-1.6-1.8-3.1-3.7-4.5-5.7c-1.5-2.1-2.9-4.2-4.1-6.3
		c-1.3-2.3-2.5-4.6-3.6-7.1c-0.1-0.3-0.2-0.5-0.3-0.8c-1-2.2-1.8-4.5-2.6-6.9c0-0.3-0.1-0.5-0.2-0.8l-0.2-0.6
		c-0.8-2.5-1.4-5.1-1.9-7.6c-0.1-0.2-0.1-0.5-0.2-0.8c-0.6-3.2-1-6.4-1.2-9.6c0-0.2,0-0.3,0-0.5c-0.1-1.4-0.1-2.7-0.1-4
		c0-2.2,0.1-4.5,0.3-6.8c0-0.4,0-0.9,0.1-1.3c0.3-2.7,0.7-5.4,1.3-8.1l0.4,0.1l2.9-11.2c1.1-2.9,2.4-5.7,3.8-8.4
		c0.3-0.5,0.6-1.1,0.9-1.6c1.2-2.3,2.6-4.6,4.2-6.7c0,0,0,0,0,0l1.1-1.1c-0.1-0.1-0.1-0.1-0.2-0.2c0.3-0.4,0.6-0.8,0.9-1.2
		c1.6-2.2,3.3-4.1,5.1-6l0.2,0.2l0.3-0.3l0.1-0.1l1.1-1.1c1.8-1.8,3.8-3.6,5.5-5l0.2-0.1l0.1,0.1
		C568.6,140.8,569.5,140.1,570.3,139.5z M524.8,126l28.6,27.7c-0.2,0.3-0.5,0.7-0.7,1c-1.7,2.3-3.2,4.7-4.6,7.2l-23.4-16.7
		C521.3,140.3,523.8,129.6,524.8,126z M524.7,123.8c-7.1-7.8-1.5-22.9,0.4-27.5l35.7,49.3c-0.3,0.3-0.6,0.6-0.9,0.9l-0.3-0.3
		c-0.1,0.1-0.1,0.1-0.2,0.2l-0.1,0.1c-1.7,1.9-3.5,3.9-5.1,6L524.7,123.8z M526.5,148.3l20.9,14.9c-0.2,0.3-0.3,0.6-0.5,1
		c-1.1,2.2-2.2,4.4-3.1,6.7l-14.4-6.9C524.2,160.7,525.9,151.1,526.5,148.3z M529.9,64.8l36.7,68l0.2,0.4l0.4,0.7l0.1,0.2l2.2,4
		c-1,0.7-2,1.4-2.8,2.2l0.1,0.2l0,0c-1.5,1.1-3.1,2.5-4.7,4l-36.4-50.2l-0.7-0.9C519.9,85.7,527.5,69.3,529.9,64.8L529.9,64.8z
		 M504.3,17.4L529,63.2c-1.4,2.5-8.4,16.4-7,26.1l-0.1-0.1L499.4,58C496.7,42.5,502.6,22.5,504.3,17.4z M482.2,39.2
		c0.1-0.8,0.2-1.5,0.3-2l15.4,21.3v0.1l0.1,0.1l25.3,35c0,0,0,0,0,0.1l0.8,1.1l0,0.1c-1.3,2.9-6.6,15.6-3.3,25.1l-15.2-14.7
		c-8.2-8.6-13.7-14.6-16.9-18.1C478.1,75,480.6,49.6,482.2,39.2z M461.4,71.1c0-2.7,0.1-4.9,0.2-6.3l62.1,60c0,0,0,0,0,0.1
		c-0.7,2.2-3.5,12-1.4,18.5l-53-37.9C462.5,95.6,461.4,79.7,461.4,71.1z M452,95.1l16.2,11.5c0,0,0,0,0,0l0,0l0.3,0.2l55.1,39.4
		c0.4,0.6,0.9,1.2,1.5,1.6c-0.5,2.1-2,9.5,0.7,14.5l-55.4-26.6l-1.9-0.9C455.3,126.7,452.5,101.6,452,95.1z M443.8,130.3
		L443.8,130.3c-0.8-2.7-1.2-5-1.5-6.3l26.6,12.7c0.3,0.1,0.5,0.3,0.8,0.5l0,0l58.9,28.2c0.3,0.2,0.6,0.4,0.9,0.5l0-0.1l13.5,6.5
		l-0.7,2.7c-0.2,0.6-0.4,1.3-0.6,1.8v0.1c-0.4,1.1-0.7,2.1-1,3.2L459.6,157l0-0.1l0.1-0.1l-0.2-0.2h-0.1
		C450.6,151,445.9,137.8,443.8,130.3z M442.9,156C442.9,156,442.9,156,442.9,156c-0.1-0.8-0.1-1.6-0.1-2.4l97.6,27.7
		c-0.1,0.5-0.3,1-0.4,1.6c-0.7,3.1-1.3,6.3-1.6,9.5c0,0.2,0,0.5,0,0.7l-83.4-16.5C448.7,170.4,444.8,161,442.9,156z M445.4,179.2
		l-0.1-0.2c-0.8-1.2-1.4-2.3-1.8-3.1l78.8,15.6v0h0.1l0,0l15.8,3.1c-0.2,2-0.2,4-0.2,6.1c0,1.3,0,2.5,0.1,4
		c-13.6-0.5-54.3-2.1-67.3-3.4c-0.6,0-1.3-0.1-2-0.3C458.5,198.6,449.7,186.4,445.4,179.2z M452.7,207.8c-2.4-2.5-4.1-4.9-5.1-6.2
		l20.9,1l0-0.2c0.8,0.2,1.5,0.3,2.2,0.4c13,1.3,53.9,2.8,67.5,3.4c0.2,2.8,0.5,5.5,1,8.2l-65.5,7.1
		C465.6,220.5,457.8,213.5,452.7,207.8z M461.5,224.3l11.9-1.3c0.2,0,0.3,0.1,0.5,0.1V223l65.6-7.1c0,0,0,0.1,0,0.1
		c0.5,2.6,1.1,5.2,1.9,7.8l-57,14.7l0-0.1C474.7,237.4,464.6,227.6,461.5,224.3z M470.6,243.9c-0.1-0.1-0.1-0.1-0.2-0.1
		c0,0,0-0.1-0.1-0.1l71.5-18.5c0.7,2.2,1.6,4.3,2.5,6.4l-51.1,21.8l0,0C484.6,254,474.5,247,470.6,243.9z M482.5,259.7L545,233
		c0,0,0,0,0,0c1,2.3,2.2,4.5,3.4,6.6c-3.7,2.4-8.6,5.4-13.7,8.6l-0.1,0.1l0,0l-29.8,17.4l0,0C496.6,267.5,486.2,261.9,482.5,259.7z
		 M494.7,273.5c0,0-0.1-0.1-0.1-0.1l10.5-6.1c0.1,0,0.1,0,0.2,0l0-0.1l30.2-17.6c0.3-0.2,0.6-0.4,0.9-0.5l12.1-7.1l3.5,3.9
		c-4.1,3.4-28.3,23.3-35.7,28.6C510.1,279,498.4,275,494.7,273.5z M507.6,285.2c-0.5-0.1-0.9-0.2-1.3-0.3l47-37.7
		c1.2,1.6,2.4,3.2,3.7,4.7c-7.1,7.6-23,25.1-28.6,30.5C523.1,287.6,512.1,286.1,507.6,285.2z M520.3,294.2l37.8-40.9
		c1,1.2,2.1,2.3,3.2,3.4l-9.1,14.3c-6.2,8.9-10.4,14.8-12.5,17.7C535.1,294.5,524.4,294.4,520.3,294.2z M550.8,294.1
		c-1.5,2.9-5.7,6.8-17,8.4c0,0,0,0-0.1,0l18.1-28.3c0.6-0.9,1.3-1.8,2-2.8v-0.1c2.7-3.9,5.7-8.2,9-13.2c0.3,0.3,0.6,0.6,0.9,0.8
		l-10.1,29.8c-0.8,1.6-1.4,2.8-2,3.8C551.4,293,551.1,293.6,550.8,294.1z M561.7,298.4c-1.4,5.9-8.4,9.9-12.5,11.8
		c-0.5,0.3-1.1,0.5-1.5,0.7l7.4-21.8c0-0.1,0.1-0.2,0.1-0.2l0,0L565,260c0.6,0.5,1.2,1,1.8,1.6c0,0,0,0,0,0L563,293l-0.1,0
		C562.5,295.1,562,297,561.7,298.4z M570.5,290.2c0,4.8,0.3,9.8,1,14.8c-2.3,4.3-6.7,7.8-9.4,9.6c-0.1,0-0.1,0-0.2-0.1l6.3-51.8
		c0.3,0.3,0.6,0.5,1,0.7c1.1,0.9,2.3,1.8,3.6,2.6c0,0.4,0,0.8,0,1.1h0.1C571.3,274.6,570.5,282.3,570.5,290.2z M575.5,318.8
		c-1.1-4.6-1.9-9.2-2.4-13.6c-0.7-5.1-1-10.2-1-15.1c0-7.8,0.8-15.5,2.4-22.8c0.1-0.4,0.2-0.9,0.3-1.3v-0.1l0.7-2.6
		c1.1-4.1,2.4-8,3.9-11.6c0.1-0.3,0.3-0.7,0.4-1c0,0.1,0,0.3,0,0.4c-0.2,1.7-0.3,3.4-0.3,5c0,2.4,0.2,4.8,0.7,7.1
		c0.1,1.5,0.2,3,0.3,4.5l-0.4,0.6c0.2,0.1,0.3,0.2,0.5,0.3c1.7,19.4,5.8,34.4,10.4,45.7c-0.1,0.4-0.3,0.7-0.4,1
		c-2.1,5.9-3.2,12.5-3.2,19.6c0,0.5,0,1.1,0,1.6c0,0,0,0,0,0c-1.3,0.5-2.4,1.6-2.9,3c-0.5-1.4-1.7-2.6-3.1-2.9
		c0-0.1-0.1-0.1-0.1-0.3C578.9,331.1,577,325.1,575.5,318.8z M576.6,341.2c0-1.9,1.5-3.4,3.4-3.4h0.1c0.3,0,0.6,0.1,0.9,0.2
		c0.4,0.1,0.8,0.4,1.1,0.6c0.7,0.6,1.1,1.4,1.2,2.3v0.2c0-0.1-0.1-0.1-0.1-0.2v3.2c0,0.1,0.1,0.1,0.1,0.2v12.3
		c0,1.9-1.5,3.3-3.3,3.3c-1.9,0.2-3.4-1.3-3.4-3.2V341.2z M515.2,335.4c-10-3.7-19.9-7.9-29.4-12.6l36.2-0.5L515.2,335.4z
		 M429.4,326.8l20.6-15.4c0.2-0.1,0.3-0.3,0.3-0.5l0.4-25.7l69.9,35.8l-37.3,0.5c0,0,0,0-0.1,0s-0.2,0-0.3,0s-0.1,0-0.2,0
		c-0.2,0.1-0.3,0.2-0.4,0.3v0.1h-0.2h-0.2l0.3,0.1l-12.9,25.2L429.4,326.8z M462.3,364.7l7.9-15.4l0.6-1.2l12.5-24.5l0.2-0.4
		l0.5,0.2c0.1,0.1,0.3,0.1,0.4,0.2c9.9,5,20.2,9.4,30.7,13.2h0.1c0.1,0,0.2,0.1,0.3,0.1s0.2,0.1,0.3,0.1c0,0,0,0,0.1,0
		c0,0,0,0,0.1,0c19.1,6.9,38.9,11.8,59,14.6l0,0v5.2c0,2,1.2,3.7,2.9,4.5c0.6,0.3,1.2,0.4,1.9,0.4c0.7,0,1.5-0.2,2.1-0.5
		c1-0.4,1.8-1.2,2.3-2.1l-0.2,0.1c0.1-0.2,0.2-0.5,0.3-0.7c0.1-0.1,0.1-0.3,0.1-0.4c0,0.1,0,0.2,0.1,0.2c0.1,0.2,0.1,0.3,0.2,0.5
		c0,0,0,0.1,0,0.1l0,0c0.2,0.5,0.5,0.9,0.9,1.3l0.1,0c0.9,0.9,2.1,1.3,3.3,1.3c2.1,0,3.9-1.3,4.6-3.2c0.3,0.6,0.7,1.2,1.1,1.7
		l0.1,0.1c0.3,0.3,0.6,0.5,0.9,0.6c0.1,0,0.2,0.1,0.3,0.2c0.1,0,0.1,0.1,0.2,0.1c0.3,0.1,0.4,0.2,0.7,0.2c0,0,0,0,0,0
		c0.1,0,0.1,0.1,0.2,0.1c0.3,0.1,0.6,0.1,1,0.1h0.2h0.1c0.3,0,0.6-0.1,0.8-0.2c0.1,0.1,0.1,0.1,0.2,0.2c0.1,0,0.1-0.1,0.2-0.1
		c0,0,0.1,0.1,0.1,0.1c1.8-0.5,3.2-2,3.5-3.8v-0.1c0,0,0,0,0-0.1l0,0c0-0.2,0-0.4,0-0.6V356l0.1,0v-0.3h-0.2v0v-1.1l0.4-0.1
		c0,0,0-0.1,0-0.1l0,0c0-0.1-0.1-0.1-0.1-0.2c3.7,0.2,7.4,0.2,11.1,0.2c5,0,10.1-0.1,15.1-0.4h0.3v0.7l0.1,0v1.5l-0.1,0v0.5
		c0,0,0,0,0,0v0.2c0,0.4,0,0.7,0.1,1.1c0,0,0,0.1,0,0.2c0,0,0,0.1,0.1,0.2c0.1,0.3,0.3,0.7,0.4,1c0,0,0-0.1,0.1-0.1c0,0,0,0.1,0,0.1
		c0,0,0,0,0-0.1c0.7,1.2,1.8,2,3.1,2.3c0.3,0.1,0.7,0.1,1,0.1c0.1,0,0.2,0,0.3,0c0,0,0.1,0,0.1,0c0,0-0.1,0.1-0.1,0.1
		c0.4,0,0.7-0.1,1-0.2c0.1,0,0.1,0,0.2,0c0.5-0.2,0.9-0.4,1.4-0.7h0.1l0.1-0.1c0,0,0,0,0-0.1c0,0,0,0,0,0c0.1-0.1,0.2-0.2,0.3-0.2
		c0.4-0.4,0.7-0.8,1-1.3c0.1-0.1,0.1-0.3,0.2-0.4c0.8,1.7,2.5,2.7,4.4,2.7c1.1,0,2.2-0.5,3-1.1l0.3,0.1c0.4-0.3,0.7-0.7,1-1.2
		l-0.2-0.1c0,0,0-0.1,0.1-0.1c0.1-0.2,0.2-0.5,0.4-0.8c0,0,0,0,0,0.1c0.1,0.4,0.3,0.7,0.5,1.1c0.3,0.5,0.8,0.9,1.3,1.2
		c0.8,0.6,1.8,1,2.9,1c0.5,0,1-0.1,1.5-0.3l-0.3-0.1c0,0,0,0,0.1,0c1.9-0.6,3.3-2.5,3.3-4.6v-5.4c20.2-3,40-8.2,59-15.3h0.1
		c0.1,0,0.2-0.1,0.3-0.1c0.1,0,0.3-0.1,0.4-0.2c0.1,0,0.1,0,0.2-0.1c4.6-1.7,9.1-3.6,13.6-5.6s8.9-4.1,13.3-6.2h0.1
		c0,0,0.1,0,0.1-0.1c0.1,0,0.2-0.1,0.3-0.1l0.4-0.2l0.4,0.8l12.1,23.7l0.5,0.9l8.2,16.1c-15.5,7.9-31.8,14.5-48.4,19.9l0,0l-0.2-0.4
		c-0.5,0.1-0.9,0.3-1.4,0.4l0.2,0.4l0,0.1c-0.3,0.1-0.6,0.2-0.9,0.2c-2.9,0.9-5.9,1.8-8.8,2.7l-0.1-0.1l-0.3-0.1l-0.3-0.1
		c-0.7,0.2-1.3,0.4-2,0.6c-0.1,0.1-0.2,0.1-0.3,0.1l0.3,0.1l0.3,0.1l0.1,0c-0.4,0.1-0.8,0.2-1.2,0.4c-0.1,0-0.1,0-0.2,0l0,0
		c-0.5,0.1-1,0.3-1.4,0.4l0,0.1c-0.3,0.1-0.5,0.2-0.7,0.2c-2.4,0.6-4.8,1.3-7.3,1.8l0,0c-0.3,0.1-0.7,0.2-1,0.2
		c-0.4,0.1-0.8,0.2-1.2,0.3l0,0l-0.7,0.2c-0.3,0.1-0.6,0.2-1,0.2c-5.9,1.4-12,2.6-17.9,3.6c0,0,0,0-0.1,0l-0.1-0.1
		c-0.4,0.1-0.8,0.1-1.2,0.2c-0.2,0-0.5,0.1-0.7,0.1l0.1,0.1c-0.2,0-0.4,0.1-0.6,0.1c-4.4,0.7-9,1.4-13.5,1.9c-0.1,0-0.3,0-0.4,0.1
		c-0.2,0-0.4,0-0.6,0l-0.5,0.1c-0.1,0-0.1,0-0.2,0l-0.7,0.1c-3.4,0.4-6.9,0.8-10.5,1.1l-0.1-0.2c-0.4,0-0.7,0.1-1.1,0.1
		c-0.2,0-0.3,0-0.5,0l0.1,0.2l-0.8,0c-3.1,0.2-6.1,0.4-9.2,0.6c-0.1,0-0.3,0-0.4,0c-0.4,0-0.7,0-1.1,0c-0.1,0-0.3,0-0.4,0
		c-2.7,0.1-5.5,0.2-8.2,0.3h-0.1c-0.1,0-0.3,0-0.4,0c-0.3,0-0.6,0-0.9,0h-0.1c-0.1,0-0.3,0-0.4,0c-2.4,0-5,0.1-7.6,0h-0.4
		c0,0-0.1,0-0.2,0c-0.3,0-0.6,0-0.9,0c-0.1,0-0.3,0-0.4,0H610c-2.7,0-5.4-0.1-8.2-0.2c-0.1,0-0.3,0-0.4,0c-0.4,0-0.7,0-1.1,0
		c-0.1,0-0.3,0-0.4,0c-3.1-0.1-6.2-0.3-9.2-0.5h-0.5c-0.4,0-0.8-0.1-1.1-0.1h-0.2c-0.1,0-0.2,0-0.3,0c-3.6-0.3-7.2-0.6-10.9-1
		l-0.5-0.1l0.1-0.1l0.2-0.2c-0.3,0.2-0.5,0.2-0.7,0.3c-0.3,0-0.6-0.1-0.9-0.1l-0.6-0.1c-4.5-0.5-9.1-1.1-13.6-1.9l-0.7-0.1
		c-0.1,0-0.1,0-0.2,0l0.1-0.1l0.2-0.2c-0.1,0.1-0.3,0.2-0.4,0.2c-0.3,0-0.6-0.1-0.9-0.1c-0.2,0-0.5-0.1-0.8-0.1
		c-6-1-12.2-2.2-18.2-3.6h-0.1c-0.3-0.1-0.6-0.1-0.9-0.2c-0.1,0-0.2,0-0.3-0.1l0.2-0.1c-0.1,0.1-0.1,0.1-0.2,0.1
		c-0.3-0.1-0.6-0.1-0.9-0.2l-1-0.2c-2.4-0.6-5-1.2-7.6-1.9c-0.5-0.1-1-0.2-1.5-0.4l-0.2-0.1c-0.4-0.1-0.9-0.2-1.3-0.3
		c-0.8-0.2-1.5-0.4-2.3-0.6c-3.2-0.9-6.4-1.8-9.5-2.8l-0.4-0.1c-0.3-0.1-0.7-0.2-1-0.3C496.1,380.1,478.8,373,462.3,364.7z
		 M537.2,415.2l3.3-12.3c0-0.2,0-0.4-0.1-0.6l-0.1-0.1l-0.1-0.1c0,0,0,0-0.1,0c-0.2-0.2-0.5-0.2-0.8,0l-12.3-1.1l-0.3,0l0.3-0.2
		l12-6.8l0.4,0.1l0.2,0.1c5.9,1.4,11.9,2.5,17.9,3.6L537.2,415.2z M542.7,412l-5.9,5.1l-0.1,0l0.5-0.5L542.7,412z M525.9,398.9
		l3.6-7.3l0-0.1c0.1,0,0.2,0.1,0.3,0.1c2.2,0.6,4.4,1.1,6.4,1.6l-0.1,0L525.9,398.9z M509.1,396.3l0.1-0.2l5.4-8.7l0.1-0.2l0,0
		l0.1,0h0.1c2.8,0.9,5.6,1.7,8.4,2.5c0.1,0,0.2,0,0.3,0.1c0,0,0.1,0,0.1,0l-0.2,0.1l-14.2,6.3L509.1,396.3z M523.8,399.9l-14-2.5
		l-0.1,0l0.2-0.1l15.5-7c0.1,0,0.1,0,0.2,0.1c0.1,0,0.2,0,0.3,0.1c0.7,0.2,1.4,0.4,2.2,0.6l-0.1,0.1L523.8,399.9z M525.5,400.5
		l-0.5,0.3l0,0L525.5,400.5z M525.3,402.2l12.3,1.1l-17.4,12.2L525.3,402.2z M535.3,416.5l-14.3,0.2h0l17.7-12.4l0,0.2L535.3,416.5z
		 M535,430.7l0.7-4.2l1.4-8l12.3-1.3l0.1,0l-14.7,15.3L535,430.7z M549.7,430.7l-13.9,2.9l14.7-15.2L549.7,430.7z M551.3,429
		l0.9-12.6v0c0-0.1,0-0.2,0-0.3v0c0,0,0,0,0-0.1s0,0,0-0.1l-0.1-0.1c0,0-0.1-0.1-0.1-0.1c0,0,0,0,0,0s0,0,0,0c0,0,0,0-0.1-0.1h-0.1
		c-0.3-0.2-0.6-0.1-0.9,0.1l-12,1.2l-0.3,0l0,0l21.6-18.7l0.5,0.1h0.2c4.4,0.7,8.9,1.3,13.3,1.8L551.3,429z M552.1,446.8
		L552.1,446.8v-0.2v-0.2v-0.1l-0.3-13.9l11.9-3.6l0.1,0L552.1,446.8z M553.4,447.5l11.5-17.8l1.5,12.3L553.4,447.5z M566.1,427.4
		L566.1,427.4c0-0.1,0-0.2-0.1-0.2c0,0,0,0-0.1-0.1c0,0,0,0-0.1-0.1s-0.2-0.1-0.3-0.1s-0.2,0-0.3,0l-12.1,3.7l-0.2,0.1l0.2-0.3
		l23.7-30l0.4,0.1h0.1c3.7,0.4,7.3,0.8,10.7,1L567.7,440L566.1,427.4z M571.9,457.1l-3-13.9l11-5.8L571.9,457.1z M573.3,457.7
		L573.3,457.7l8-19.7l0,0l3.9,11.8L573.3,457.7z M586,447.6l-3.8-11.8c0-0.3-0.1-0.6-0.5-0.8c-0.4-0.2-0.8,0-1,0.4l0,0.1l-10.8,5.7
		l-0.3,0.2l0.2-0.4l20.2-39.4c0.1,0,0.2,0,0.3,0h0.1h0.1c3,0.2,6.1,0.4,9,0.6L586,447.6z M593.4,463.5l-5.6-13l9.6-7.7L593.4,463.5z
		 M594.9,463.8l4.1-20.9l0.1,0.1l6.1,10.9L594.9,463.8z M605.5,451.5l-6.1-11c0,0,0,0,0-0.1c0,0,0,0,0-0.1c0,0,0,0,0-0.1
		c0,0,0,0-0.1-0.1l-0.1-0.1c0,0,0,0-0.1,0H599h-0.1c0,0,0,0-0.1,0c-0.1,0-0.3,0-0.4,0.1c0,0,0,0,0,0c0,0,0,0,0,0
		c-0.2,0.1-0.4,0.2-0.5,0.4l-9.4,7.6l-0.4,0.3l0.1-0.2l13.7-46c0,0,0.1,0,0.1,0c0,0,0,0,0.1,0c2.7,0.1,5.4,0.2,8.3,0.2l-1.8,17.9
		L605.5,451.5z M615.1,464.2l-6.8-10l-0.2-0.2v-0.2l0-0.3l7-8.2V464.2z M622.5,457.4l-5.3,7.8l-0.1,0.1v-20.1l0.1,0.1l7.5,8.9
		L622.5,457.4z M624.6,451.1l-7.5-8.9c0,0,0-0.1-0.1-0.1l-0.1-0.1c-0.1-0.1-0.2-0.1-0.3-0.1c0,0-0.1,0-0.2,0c0,0,0,0,0,0s0,0,0,0
		c0,0,0,0-0.1,0c0,0,0,0-0.1,0c0,0,0,0-0.1,0c0,0-0.1,0-0.1,0c-0.1,0-0.1,0-0.2,0c-0.4,0-0.7,0.3-0.7,0.7v0.2l-6.6,7.9l4.4-48.2
		c0.7,0,1.4,0,2.2,0c1.7,0,3.4,0,5.1,0h0.4h0l1.7,17.9l2.9,31.5L624.6,451.1z M623.8,420.7L623.8,420.7l0-0.4l-1.3-17.9
		c2.7-0.1,5.5-0.2,8.2-0.3h0.2l13.5,46.2l0.1,0.3l-0.5-0.4l-9.4-7.5c-0.1-0.4-0.5-0.7-0.9-0.6c-0.1,0-0.1,0.1-0.2,0.1h-0.1
		c0,0-0.1,0-0.1,0.1c0,0,0,0,0,0.1c-0.1,0.1-0.1,0.2-0.2,0.3l-6.1,11L623.8,420.7z M637.3,463.9l-10.1-10.1l6.1-10.9l0.1-0.1
		l4.1,21.3L637.3,463.9z M642.6,454.8l-1.3,3l-0.9,2.1l-1.5,3.5l-4-20.7l9.6,7.7L642.6,454.8z M632.9,402c3.1-0.2,6.1-0.4,9-0.6h0.1
		c0.1,0,0.3,0,0.4,0h0.1l20.2,39.3l0.4,0.7l-0.6-0.3l-11.1-5.9h0c-0.2-0.3-0.5-0.4-0.9-0.2c-0.4,0.2-0.6,0.6-0.4,1l0.1,0.1
		l-3.7,11.3L632.9,402z M658.9,457.7l-11.8-7.9l3.9-11.7L658.9,457.7L658.9,457.7z M660.4,457.1l0,0.1l-8.1-19.9l0.1,0.1l11,5.8
		L660.4,457.1z M664.6,440l-20.5-38.7c3.6-0.3,7.3-0.7,10.9-1.1h0.1c0.1,0,0.2,0,0.2,0h0.3l0.2,0l23.7,30l0.4,0.5l-0.7-0.2
		l-12.1-3.7c-0.1,0-0.2,0-0.3,0s-0.2,0-0.3,0.1l-0.1,0.1c0,0,0,0,0,0c-0.3,0.2-0.4,0.6-0.2,0.9L664.6,440z M678.8,447.5l-13.1-5.5
		l1.5-12.3l0-0.1L678.8,447.5L678.8,447.5z M668.4,428.8l11.9,3.6l-0.3,14.2L668.4,428.8z"/>
	<path class="st0" d="M460.9,145.2l76.6,29.6h0.1c0.1,0,0.3-0.1,0.4-0.2c0.1-0.2,0-0.4-0.2-0.5l-76.6-29.6c-0.2-0.1-0.4,0-0.5,0.2
		S460.7,145.1,460.9,145.2z"/>
	<path class="st0" d="M461.8,169.1l74.5,18.1c0.1,0,0.3-0.1,0.4-0.3c0-0.2-0.1-0.5-0.3-0.5L462,168.3c-0.2,0-0.5,0.1-0.5,0.3
		S461.6,169.1,461.8,169.1z"/>
	<path class="st0" d="M531.8,198.3c0-0.2-0.1-0.4-0.3-0.4l-66.8-9.1c-0.2,0-0.4,0.1-0.4,0.3s0.1,0.4,0.3,0.4l66.8,9.1
		C531.5,198.6,531.7,198.4,531.8,198.3z"/>
	<path class="st0" d="M533.9,210.3c0-0.2-0.2-0.4-0.4-0.4h-62.6c-0.2,0-0.4,0.2-0.4,0.4s0.2,0.4,0.4,0.4h62.6
		C533.7,210.7,533.8,210.5,533.9,210.3z"/>
	<path class="st0" d="M535.4,219.9c0-0.2-0.2-0.3-0.4-0.3l-54.3,10.6c-0.2,0-0.3,0.2-0.3,0.4c0.1,0.2,0.2,0.3,0.4,0.3l54.3-10.6
		C535.3,220.3,535.4,220.1,535.4,219.9z"/>
	<path class="st0" d="M539.1,230c-0.1-0.2-0.3-0.3-0.5-0.2L491,245.6c-0.2,0.1-0.3,0.3-0.2,0.5c0.1,0.2,0.2,0.3,0.4,0.3
		c0.1,0,0.1,0,0.1-0.1l47.6-15.8C539.1,230.4,539.2,230.2,539.1,230z"/>
	<path class="st0" d="M541.6,239.1c-0.1-0.2-0.3-0.3-0.5-0.2l-39.5,20.4c-0.2,0.1-0.3,0.3-0.2,0.5c0,0.1,0.2,0.2,0.3,0.2
		s0.1,0,0.2,0l39.5-20.4C541.6,239.5,541.7,239.3,541.6,239.1z"/>
	<path class="st0" d="M547.1,246c-0.1-0.2-0.3-0.2-0.5-0.1l-34.7,23.5c-0.2,0.1-0.2,0.3-0.1,0.5c0.1,0.1,0.2,0.2,0.3,0.2
		c0.1,0,0.1,0,0.2-0.1l34.7-23.5C547.2,246.4,547.2,246.2,547.1,246z"/>
	<path class="st0" d="M552.3,251.9c-0.1-0.1-0.3-0.1-0.5,0l-29.2,27.3c-0.1,0.1-0.1,0.3,0,0.5c0.1,0.1,0.2,0.1,0.3,0.1
		s0.2,0,0.2-0.1l29.2-27.3C552.4,252.3,552.4,252.1,552.3,251.9z"/>
	<path class="st0" d="M695.3,174.8c0,0,0.1,0,0.2,0l76.6-29.6c0.2-0.1,0.3-0.3,0.2-0.5s-0.3-0.3-0.5-0.2l-76.6,29.6
		c-0.2,0.1-0.3,0.3-0.2,0.5C695,174.7,695.2,174.8,695.3,174.8z"/>
	<path class="st0" d="M770.9,168.3l-74.4,18.1c-0.2,0.1-0.3,0.3-0.3,0.5c0.1,0.2,0.2,0.3,0.4,0.3l74.5-18.1c0.2-0.1,0.3-0.3,0.3-0.5
		C771.3,168.4,771.1,168.3,770.9,168.3z"/>
	<path class="st0" d="M768.2,188.8l-66.8,9.1c-0.2,0-0.3,0.2-0.3,0.4c0.1,0.2,0.2,0.3,0.4,0.3l66.8-9.1c0.2,0,0.3-0.2,0.3-0.4
		C768.6,188.9,768.4,188.8,768.2,188.8z"/>
	<path class="st0" d="M762,209.9h-62.6c-0.2,0-0.4,0.2-0.4,0.4s0.2,0.4,0.4,0.4H762c0.2,0,0.4-0.2,0.4-0.4
		C762.4,210.1,762.2,209.9,762,209.9z"/>
	<path class="st0" d="M752.1,230.2l-54.3-10.6c-0.2,0-0.4,0.1-0.4,0.3s0.1,0.4,0.3,0.4l54.4,10.6c0.1,0,0.3-0.1,0.3-0.3
		C752.4,230.4,752.3,230.2,752.1,230.2z"/>
	<path class="st0" d="M693.9,230.6l47.6,15.8h0.1c0.2,0,0.3-0.1,0.4-0.2c0.1-0.2,0-0.4-0.2-0.5l-47.6-15.8c-0.2-0.1-0.4,0-0.5,0.2
		C693.6,230.3,693.7,230.5,693.9,230.6z"/>
	<path class="st0" d="M731.2,259.3l-39.5-20.4c-0.2-0.1-0.4,0-0.5,0.2c-0.1,0.2,0,0.4,0.2,0.5l39.5,20.4c0.1,0,0.1,0,0.2,0
		c0.2,0,0.3,0,0.3-0.2C731.5,259.6,731.4,259.4,731.2,259.3z"/>
	<path class="st0" d="M685.8,246c-0.1,0.2-0.1,0.4,0.1,0.5l34.7,23.5c0.1,0.1,0.1,0.1,0.2,0.1s0.2,0,0.3-0.2
		c0.1-0.2,0.1-0.4-0.1-0.5l-34.7-23.5C686.1,245.8,685.9,245.8,685.8,246z"/>
	<path class="st0" d="M680.4,252.4l29.2,27.3c0.1,0.1,0.2,0.1,0.3,0.1s0.2,0,0.2-0.1c0.2-0.1,0.2-0.4,0-0.5l-29.2-27.3
		c-0.1-0.2-0.4-0.2-0.5,0C680.2,252,680.2,252.3,680.4,252.4z"/>
	<path class="st0" d="M727.2,395.1h37.1l-9.9-18.4c-1.2,0.4-1.3,0.5-2.1,0.8l8.3,15.5h-34.8L727.2,395.1z"/>
	<path class="st0" d="M476.5,376.7l-9.9,18.4h37.1l1.4-2.1h-34.8l8.3-15.5C477.8,377.2,477.7,377.1,476.5,376.7z"/>
</g>
</svg>
