<?xml version="1.0" encoding="utf-8"?>
<!-- Generator: Adobe Illustrator 21.0.0, SVG Export Plug-In . SVG Version: 6.00 Build 0)  -->
<svg version="1.1" id="Слой_1" xmlns="http://www.w3.org/2000/svg" xmlns:xlink="http://www.w3.org/1999/xlink" x="0px" y="0px"
	 viewBox="0 0 24 24" style="enable-background:new 0 0 24 24;" xml:space="preserve">
<style type="text/css">
	.st0{fill:none;}
	.st1{fill:#E2E6EA;}
</style>
<rect class="st0" width="24" height="24"/>
<path class="st1" d="M20.1,10.8c0,0.2,0,0.4,0,0.5c0,5.5-4.2,11.9-11.9,11.9c-2.4,0-4.6-0.7-6.4-1.9c0.3,0,0.7,0.1,1,0.1
	c2,0,3.7-0.7,5.2-1.8c-1.8,0-3.4-1.2-3.9-2.9c0.3,0,0.5,0.1,0.8,0.1c0.4,0,0.7-0.1,1.1-0.1c-1.9-0.4-3.3-2.1-3.3-4.1v-0.1
	C3.2,12.8,3.9,13,4.5,13c-1.1-0.7-1.9-2-1.9-3.5c0-0.8,0.2-1.5,0.6-2.1c2.1,2.5,5.1,4.2,8.6,4.4c-0.1-0.3-0.1-0.6-0.1-1
	c0-2.3,1.9-4.2,4.2-4.2c1.2,0,2.3,0.5,3,1.3c0.9-0.2,1.8-0.5,2.6-1c-0.3,1-1,1.8-1.8,2.3c0.8-0.1,1.7-0.3,2.4-0.6
	C21.6,9.5,20.9,10.2,20.1,10.8L20.1,10.8z"/>
</svg>
