<?xml version="1.0" encoding="utf-8"?>
<!-- Generator: Adobe Illustrator 21.0.0, SVG Export Plug-In . SVG Version: 6.00 Build 0)  -->
<svg version="1.1" id="Слой_1" xmlns="http://www.w3.org/2000/svg" xmlns:xlink="http://www.w3.org/1999/xlink" x="0px" y="0px"
	 viewBox="0 0 24 24" style="enable-background:new 0 0 24 24;" xml:space="preserve">
<style type="text/css">
	.st0{fill:#E2E6EA;}
	.st1{fill:none;}
</style>
<path class="st0" d="M23.3,10.1c0.2-0.5,0-1-0.8-1h-2.6c-0.7,0-1,0.3-1.1,0.7c0,0-1.3,3.2-3.2,5.3C15,15.8,14.7,16,14.4,16
	c-0.2,0-0.4-0.2-0.4-0.7v-5.1c0-0.7-0.2-1-0.7-1H9.2c-0.4,0-0.7,0.3-0.7,0.6c0,0.6,0.9,0.8,1,2.5v3.8c0,0.8-0.1,1-0.5,1
	c-0.9,0-3-3.2-4.3-6.9c-0.3-0.7-0.5-1-1.2-1H1c-0.7,0-0.9,0.3-0.9,0.7c0,0.7,0.9,4.1,4.1,8.6c2.1,3.1,5.2,4.7,7.9,4.7
	c1.6,0,1.9-0.4,1.9-1c0-2.9-0.1-3.2,0.7-3.2c0.4,0,1,0.2,2.6,1.7c1.8,1.8,2,2.5,3,2.5h2.6c0.7,0,1.1-0.4,0.9-1.1
	c-0.5-1.5-3.8-4.7-4-4.9c-0.4-0.5-0.3-0.7,0-1.2C19.8,16.1,23,11.6,23.3,10.1L23.3,10.1z"/>
<rect class="st1" width="24" height="24"/>
</svg>
